solid 12key_badge_r1
  facet normal 0.000000 0.000000 1.000000
    outer loop
      vertex 0.0000 36.0000 2.0000
      vertex 0.0000 0.0000 2.0000
      vertex 70.0000 0.0000 2.0000
    endloop
  endfacet
  facet normal 0.000000 0.000000 -1.000000
    outer loop
      vertex 70.0000 0.0000 0.0000
      vertex 0.0000 0.0000 0.0000
      vertex 0.0000 36.0000 0.0000
    endloop
  endfacet
  facet normal 0.000000 -0.000000 1.000000
    outer loop
      vertex 70.0000 0.0000 2.0000
      vertex 70.0000 36.0000 2.0000
      vertex 0.0000 36.0000 2.0000
    endloop
  endfacet
  facet normal 0.000000 0.000000 -1.000000
    outer loop
      vertex 0.0000 36.0000 0.0000
      vertex 70.0000 36.0000 0.0000
      vertex 70.0000 0.0000 0.0000
    endloop
  endfacet
  facet normal 0.000000 -1.000000 0.000000
    outer loop
      vertex 0.0000 0.0000 0.0000
      vertex 70.0000 0.0000 0.0000
      vertex 70.0000 0.0000 2.0000
    endloop
  endfacet
  facet normal 0.000000 -1.000000 0.000000
    outer loop
      vertex 0.0000 0.0000 0.0000
      vertex 70.0000 0.0000 2.0000
      vertex 0.0000 0.0000 2.0000
    endloop
  endfacet
  facet normal 1.000000 0.000000 0.000000
    outer loop
      vertex 70.0000 0.0000 0.0000
      vertex 70.0000 36.0000 0.0000
      vertex 70.0000 36.0000 2.0000
    endloop
  endfacet
  facet normal 1.000000 0.000000 0.000000
    outer loop
      vertex 70.0000 0.0000 0.0000
      vertex 70.0000 36.0000 2.0000
      vertex 70.0000 0.0000 2.0000
    endloop
  endfacet
  facet normal 0.000000 1.000000 0.000000
    outer loop
      vertex 70.0000 36.0000 0.0000
      vertex 0.0000 36.0000 0.0000
      vertex 0.0000 36.0000 2.0000
    endloop
  endfacet
  facet normal 0.000000 1.000000 -0.000000
    outer loop
      vertex 70.0000 36.0000 0.0000
      vertex 0.0000 36.0000 2.0000
      vertex 70.0000 36.0000 2.0000
    endloop
  endfacet
  facet normal -1.000000 0.000000 0.000000
    outer loop
      vertex 0.0000 36.0000 0.0000
      vertex 0.0000 0.0000 0.0000
      vertex 0.0000 0.0000 2.0000
    endloop
  endfacet
  facet normal -1.000000 0.000000 0.000000
    outer loop
      vertex 0.0000 36.0000 0.0000
      vertex 0.0000 0.0000 2.0000
      vertex 0.0000 36.0000 2.0000
    endloop
  endfacet
  facet normal 0.000000 0.000000 1.000000
    outer loop
      vertex 5.0000 9.4500 2.8000
      vertex 5.0000 8.5500 2.8000
      vertex 7.7000 8.5500 2.8000
    endloop
  endfacet
  facet normal 0.000000 0.000000 -1.000000
    outer loop
      vertex 7.7000 8.5500 2.0000
      vertex 5.0000 8.5500 2.0000
      vertex 5.0000 9.4500 2.0000
    endloop
  endfacet
  facet normal 0.000000 -0.000000 1.000000
    outer loop
      vertex 7.7000 8.5500 2.8000
      vertex 7.7000 9.4500 2.8000
      vertex 5.0000 9.4500 2.8000
    endloop
  endfacet
  facet normal 0.000000 0.000000 -1.000000
    outer loop
      vertex 5.0000 9.4500 2.0000
      vertex 7.7000 9.4500 2.0000
      vertex 7.7000 8.5500 2.0000
    endloop
  endfacet
  facet normal 0.000000 -1.000000 0.000000
    outer loop
      vertex 5.0000 8.5500 2.0000
      vertex 7.7000 8.5500 2.0000
      vertex 7.7000 8.5500 2.8000
    endloop
  endfacet
  facet normal 0.000000 -1.000000 0.000000
    outer loop
      vertex 5.0000 8.5500 2.0000
      vertex 7.7000 8.5500 2.8000
      vertex 5.0000 8.5500 2.8000
    endloop
  endfacet
  facet normal 1.000000 0.000000 0.000000
    outer loop
      vertex 7.7000 8.5500 2.0000
      vertex 7.7000 9.4500 2.0000
      vertex 7.7000 9.4500 2.8000
    endloop
  endfacet
  facet normal 1.000000 0.000000 0.000000
    outer loop
      vertex 7.7000 8.5500 2.0000
      vertex 7.7000 9.4500 2.8000
      vertex 7.7000 8.5500 2.8000
    endloop
  endfacet
  facet normal 0.000000 1.000000 0.000000
    outer loop
      vertex 7.7000 9.4500 2.0000
      vertex 5.0000 9.4500 2.0000
      vertex 5.0000 9.4500 2.8000
    endloop
  endfacet
  facet normal 0.000000 1.000000 -0.000000
    outer loop
      vertex 7.7000 9.4500 2.0000
      vertex 5.0000 9.4500 2.8000
      vertex 7.7000 9.4500 2.8000
    endloop
  endfacet
  facet normal -1.000000 0.000000 0.000000
    outer loop
      vertex 5.0000 9.4500 2.0000
      vertex 5.0000 8.5500 2.0000
      vertex 5.0000 8.5500 2.8000
    endloop
  endfacet
  facet normal -1.000000 0.000000 0.000000
    outer loop
      vertex 5.0000 9.4500 2.0000
      vertex 5.0000 8.5500 2.8000
      vertex 5.0000 9.4500 2.8000
    endloop
  endfacet
  facet normal 0.000000 0.000000 1.000000
    outer loop
      vertex 8.6000 9.4500 2.8000
      vertex 8.6000 8.5500 2.8000
      vertex 9.5000 8.5500 2.8000
    endloop
  endfacet
  facet normal 0.000000 0.000000 -1.000000
    outer loop
      vertex 9.5000 8.5500 2.0000
      vertex 8.6000 8.5500 2.0000
      vertex 8.6000 9.4500 2.0000
    endloop
  endfacet
  facet normal 0.000000 -0.000000 1.000000
    outer loop
      vertex 9.5000 8.5500 2.8000
      vertex 9.5000 9.4500 2.8000
      vertex 8.6000 9.4500 2.8000
    endloop
  endfacet
  facet normal 0.000000 0.000000 -1.000000
    outer loop
      vertex 8.6000 9.4500 2.0000
      vertex 9.5000 9.4500 2.0000
      vertex 9.5000 8.5500 2.0000
    endloop
  endfacet
  facet normal 0.000000 -1.000000 0.000000
    outer loop
      vertex 8.6000 8.5500 2.0000
      vertex 9.5000 8.5500 2.0000
      vertex 9.5000 8.5500 2.8000
    endloop
  endfacet
  facet normal 0.000000 -1.000000 0.000000
    outer loop
      vertex 8.6000 8.5500 2.0000
      vertex 9.5000 8.5500 2.8000
      vertex 8.6000 8.5500 2.8000
    endloop
  endfacet
  facet normal 1.000000 0.000000 0.000000
    outer loop
      vertex 9.5000 8.5500 2.0000
      vertex 9.5000 9.4500 2.0000
      vertex 9.5000 9.4500 2.8000
    endloop
  endfacet
  facet normal 1.000000 0.000000 0.000000
    outer loop
      vertex 9.5000 8.5500 2.0000
      vertex 9.5000 9.4500 2.8000
      vertex 9.5000 8.5500 2.8000
    endloop
  endfacet
  facet normal 0.000000 1.000000 0.000000
    outer loop
      vertex 9.5000 9.4500 2.0000
      vertex 8.6000 9.4500 2.0000
      vertex 8.6000 9.4500 2.8000
    endloop
  endfacet
  facet normal 0.000000 1.000000 -0.000000
    outer loop
      vertex 9.5000 9.4500 2.0000
      vertex 8.6000 9.4500 2.8000
      vertex 9.5000 9.4500 2.8000
    endloop
  endfacet
  facet normal -1.000000 0.000000 0.000000
    outer loop
      vertex 8.6000 9.4500 2.0000
      vertex 8.6000 8.5500 2.0000
      vertex 8.6000 8.5500 2.8000
    endloop
  endfacet
  facet normal -1.000000 0.000000 0.000000
    outer loop
      vertex 8.6000 9.4500 2.0000
      vertex 8.6000 8.5500 2.8000
      vertex 8.6000 9.4500 2.8000
    endloop
  endfacet
  facet normal 0.000000 0.000000 1.000000
    outer loop
      vertex 10.4000 9.4500 2.8000
      vertex 10.4000 8.5500 2.8000
      vertex 13.1000 8.5500 2.8000
    endloop
  endfacet
  facet normal 0.000000 0.000000 -1.000000
    outer loop
      vertex 13.1000 8.5500 2.0000
      vertex 10.4000 8.5500 2.0000
      vertex 10.4000 9.4500 2.0000
    endloop
  endfacet
  facet normal 0.000000 -0.000000 1.000000
    outer loop
      vertex 13.1000 8.5500 2.8000
      vertex 13.1000 9.4500 2.8000
      vertex 10.4000 9.4500 2.8000
    endloop
  endfacet
  facet normal 0.000000 0.000000 -1.000000
    outer loop
      vertex 10.4000 9.4500 2.0000
      vertex 13.1000 9.4500 2.0000
      vertex 13.1000 8.5500 2.0000
    endloop
  endfacet
  facet normal 0.000000 -1.000000 0.000000
    outer loop
      vertex 10.4000 8.5500 2.0000
      vertex 13.1000 8.5500 2.0000
      vertex 13.1000 8.5500 2.8000
    endloop
  endfacet
  facet normal 0.000000 -1.000000 0.000000
    outer loop
      vertex 10.4000 8.5500 2.0000
      vertex 13.1000 8.5500 2.8000
      vertex 10.4000 8.5500 2.8000
    endloop
  endfacet
  facet normal 1.000000 0.000000 0.000000
    outer loop
      vertex 13.1000 8.5500 2.0000
      vertex 13.1000 9.4500 2.0000
      vertex 13.1000 9.4500 2.8000
    endloop
  endfacet
  facet normal 1.000000 0.000000 0.000000
    outer loop
      vertex 13.1000 8.5500 2.0000
      vertex 13.1000 9.4500 2.8000
      vertex 13.1000 8.5500 2.8000
    endloop
  endfacet
  facet normal 0.000000 1.000000 0.000000
    outer loop
      vertex 13.1000 9.4500 2.0000
      vertex 10.4000 9.4500 2.0000
      vertex 10.4000 9.4500 2.8000
    endloop
  endfacet
  facet normal 0.000000 1.000000 -0.000000
    outer loop
      vertex 13.1000 9.4500 2.0000
      vertex 10.4000 9.4500 2.8000
      vertex 13.1000 9.4500 2.8000
    endloop
  endfacet
  facet normal -1.000000 0.000000 0.000000
    outer loop
      vertex 10.4000 9.4500 2.0000
      vertex 10.4000 8.5500 2.0000
      vertex 10.4000 8.5500 2.8000
    endloop
  endfacet
  facet normal -1.000000 0.000000 0.000000
    outer loop
      vertex 10.4000 9.4500 2.0000
      vertex 10.4000 8.5500 2.8000
      vertex 10.4000 9.4500 2.8000
    endloop
  endfacet
  facet normal 0.000000 0.000000 1.000000
    outer loop
      vertex 14.0000 9.4500 2.8000
      vertex 14.0000 8.5500 2.8000
      vertex 14.9000 8.5500 2.8000
    endloop
  endfacet
  facet normal 0.000000 0.000000 -1.000000
    outer loop
      vertex 14.9000 8.5500 2.0000
      vertex 14.0000 8.5500 2.0000
      vertex 14.0000 9.4500 2.0000
    endloop
  endfacet
  facet normal 0.000000 -0.000000 1.000000
    outer loop
      vertex 14.9000 8.5500 2.8000
      vertex 14.9000 9.4500 2.8000
      vertex 14.0000 9.4500 2.8000
    endloop
  endfacet
  facet normal 0.000000 0.000000 -1.000000
    outer loop
      vertex 14.0000 9.4500 2.0000
      vertex 14.9000 9.4500 2.0000
      vertex 14.9000 8.5500 2.0000
    endloop
  endfacet
  facet normal 0.000000 -1.000000 0.000000
    outer loop
      vertex 14.0000 8.5500 2.0000
      vertex 14.9000 8.5500 2.0000
      vertex 14.9000 8.5500 2.8000
    endloop
  endfacet
  facet normal 0.000000 -1.000000 0.000000
    outer loop
      vertex 14.0000 8.5500 2.0000
      vertex 14.9000 8.5500 2.8000
      vertex 14.0000 8.5500 2.8000
    endloop
  endfacet
  facet normal 1.000000 0.000000 0.000000
    outer loop
      vertex 14.9000 8.5500 2.0000
      vertex 14.9000 9.4500 2.0000
      vertex 14.9000 9.4500 2.8000
    endloop
  endfacet
  facet normal 1.000000 0.000000 0.000000
    outer loop
      vertex 14.9000 8.5500 2.0000
      vertex 14.9000 9.4500 2.8000
      vertex 14.9000 8.5500 2.8000
    endloop
  endfacet
  facet normal 0.000000 1.000000 0.000000
    outer loop
      vertex 14.9000 9.4500 2.0000
      vertex 14.0000 9.4500 2.0000
      vertex 14.0000 9.4500 2.8000
    endloop
  endfacet
  facet normal 0.000000 1.000000 -0.000000
    outer loop
      vertex 14.9000 9.4500 2.0000
      vertex 14.0000 9.4500 2.8000
      vertex 14.9000 9.4500 2.8000
    endloop
  endfacet
  facet normal -1.000000 0.000000 0.000000
    outer loop
      vertex 14.0000 9.4500 2.0000
      vertex 14.0000 8.5500 2.0000
      vertex 14.0000 8.5500 2.8000
    endloop
  endfacet
  facet normal -1.000000 0.000000 0.000000
    outer loop
      vertex 14.0000 9.4500 2.0000
      vertex 14.0000 8.5500 2.8000
      vertex 14.0000 9.4500 2.8000
    endloop
  endfacet
  facet normal 0.000000 0.000000 1.000000
    outer loop
      vertex 17.6000 9.4500 2.8000
      vertex 17.6000 8.5500 2.8000
      vertex 18.5000 8.5500 2.8000
    endloop
  endfacet
  facet normal 0.000000 0.000000 -1.000000
    outer loop
      vertex 18.5000 8.5500 2.0000
      vertex 17.6000 8.5500 2.0000
      vertex 17.6000 9.4500 2.0000
    endloop
  endfacet
  facet normal 0.000000 -0.000000 1.000000
    outer loop
      vertex 18.5000 8.5500 2.8000
      vertex 18.5000 9.4500 2.8000
      vertex 17.6000 9.4500 2.8000
    endloop
  endfacet
  facet normal 0.000000 0.000000 -1.000000
    outer loop
      vertex 17.6000 9.4500 2.0000
      vertex 18.5000 9.4500 2.0000
      vertex 18.5000 8.5500 2.0000
    endloop
  endfacet
  facet normal 0.000000 -1.000000 0.000000
    outer loop
      vertex 17.6000 8.5500 2.0000
      vertex 18.5000 8.5500 2.0000
      vertex 18.5000 8.5500 2.8000
    endloop
  endfacet
  facet normal 0.000000 -1.000000 0.000000
    outer loop
      vertex 17.6000 8.5500 2.0000
      vertex 18.5000 8.5500 2.8000
      vertex 17.6000 8.5500 2.8000
    endloop
  endfacet
  facet normal 1.000000 0.000000 0.000000
    outer loop
      vertex 18.5000 8.5500 2.0000
      vertex 18.5000 9.4500 2.0000
      vertex 18.5000 9.4500 2.8000
    endloop
  endfacet
  facet normal 1.000000 0.000000 0.000000
    outer loop
      vertex 18.5000 8.5500 2.0000
      vertex 18.5000 9.4500 2.8000
      vertex 18.5000 8.5500 2.8000
    endloop
  endfacet
  facet normal 0.000000 1.000000 0.000000
    outer loop
      vertex 18.5000 9.4500 2.0000
      vertex 17.6000 9.4500 2.0000
      vertex 17.6000 9.4500 2.8000
    endloop
  endfacet
  facet normal 0.000000 1.000000 -0.000000
    outer loop
      vertex 18.5000 9.4500 2.0000
      vertex 17.6000 9.4500 2.8000
      vertex 18.5000 9.4500 2.8000
    endloop
  endfacet
  facet normal -1.000000 0.000000 0.000000
    outer loop
      vertex 17.6000 9.4500 2.0000
      vertex 17.6000 8.5500 2.0000
      vertex 17.6000 8.5500 2.8000
    endloop
  endfacet
  facet normal -1.000000 0.000000 0.000000
    outer loop
      vertex 17.6000 9.4500 2.0000
      vertex 17.6000 8.5500 2.8000
      vertex 17.6000 9.4500 2.8000
    endloop
  endfacet
  facet normal 0.000000 0.000000 1.000000
    outer loop
      vertex 19.4000 9.4500 2.8000
      vertex 19.4000 8.5500 2.8000
      vertex 22.1000 8.5500 2.8000
    endloop
  endfacet
  facet normal 0.000000 0.000000 -1.000000
    outer loop
      vertex 22.1000 8.5500 2.0000
      vertex 19.4000 8.5500 2.0000
      vertex 19.4000 9.4500 2.0000
    endloop
  endfacet
  facet normal 0.000000 -0.000000 1.000000
    outer loop
      vertex 22.1000 8.5500 2.8000
      vertex 22.1000 9.4500 2.8000
      vertex 19.4000 9.4500 2.8000
    endloop
  endfacet
  facet normal 0.000000 0.000000 -1.000000
    outer loop
      vertex 19.4000 9.4500 2.0000
      vertex 22.1000 9.4500 2.0000
      vertex 22.1000 8.5500 2.0000
    endloop
  endfacet
  facet normal 0.000000 -1.000000 0.000000
    outer loop
      vertex 19.4000 8.5500 2.0000
      vertex 22.1000 8.5500 2.0000
      vertex 22.1000 8.5500 2.8000
    endloop
  endfacet
  facet normal 0.000000 -1.000000 0.000000
    outer loop
      vertex 19.4000 8.5500 2.0000
      vertex 22.1000 8.5500 2.8000
      vertex 19.4000 8.5500 2.8000
    endloop
  endfacet
  facet normal 1.000000 0.000000 0.000000
    outer loop
      vertex 22.1000 8.5500 2.0000
      vertex 22.1000 9.4500 2.0000
      vertex 22.1000 9.4500 2.8000
    endloop
  endfacet
  facet normal 1.000000 0.000000 0.000000
    outer loop
      vertex 22.1000 8.5500 2.0000
      vertex 22.1000 9.4500 2.8000
      vertex 22.1000 8.5500 2.8000
    endloop
  endfacet
  facet normal 0.000000 1.000000 0.000000
    outer loop
      vertex 22.1000 9.4500 2.0000
      vertex 19.4000 9.4500 2.0000
      vertex 19.4000 9.4500 2.8000
    endloop
  endfacet
  facet normal 0.000000 1.000000 -0.000000
    outer loop
      vertex 22.1000 9.4500 2.0000
      vertex 19.4000 9.4500 2.8000
      vertex 22.1000 9.4500 2.8000
    endloop
  endfacet
  facet normal -1.000000 0.000000 0.000000
    outer loop
      vertex 19.4000 9.4500 2.0000
      vertex 19.4000 8.5500 2.0000
      vertex 19.4000 8.5500 2.8000
    endloop
  endfacet
  facet normal -1.000000 0.000000 0.000000
    outer loop
      vertex 19.4000 9.4500 2.0000
      vertex 19.4000 8.5500 2.8000
      vertex 19.4000 9.4500 2.8000
    endloop
  endfacet
  facet normal 0.000000 0.000000 1.000000
    outer loop
      vertex 24.8000 9.4500 2.8000
      vertex 24.8000 8.5500 2.8000
      vertex 25.7000 8.5500 2.8000
    endloop
  endfacet
  facet normal 0.000000 0.000000 -1.000000
    outer loop
      vertex 25.7000 8.5500 2.0000
      vertex 24.8000 8.5500 2.0000
      vertex 24.8000 9.4500 2.0000
    endloop
  endfacet
  facet normal 0.000000 -0.000000 1.000000
    outer loop
      vertex 25.7000 8.5500 2.8000
      vertex 25.7000 9.4500 2.8000
      vertex 24.8000 9.4500 2.8000
    endloop
  endfacet
  facet normal 0.000000 0.000000 -1.000000
    outer loop
      vertex 24.8000 9.4500 2.0000
      vertex 25.7000 9.4500 2.0000
      vertex 25.7000 8.5500 2.0000
    endloop
  endfacet
  facet normal 0.000000 -1.000000 0.000000
    outer loop
      vertex 24.8000 8.5500 2.0000
      vertex 25.7000 8.5500 2.0000
      vertex 25.7000 8.5500 2.8000
    endloop
  endfacet
  facet normal 0.000000 -1.000000 0.000000
    outer loop
      vertex 24.8000 8.5500 2.0000
      vertex 25.7000 8.5500 2.8000
      vertex 24.8000 8.5500 2.8000
    endloop
  endfacet
  facet normal 1.000000 0.000000 0.000000
    outer loop
      vertex 25.7000 8.5500 2.0000
      vertex 25.7000 9.4500 2.0000
      vertex 25.7000 9.4500 2.8000
    endloop
  endfacet
  facet normal 1.000000 0.000000 0.000000
    outer loop
      vertex 25.7000 8.5500 2.0000
      vertex 25.7000 9.4500 2.8000
      vertex 25.7000 8.5500 2.8000
    endloop
  endfacet
  facet normal 0.000000 1.000000 0.000000
    outer loop
      vertex 25.7000 9.4500 2.0000
      vertex 24.8000 9.4500 2.0000
      vertex 24.8000 9.4500 2.8000
    endloop
  endfacet
  facet normal 0.000000 1.000000 -0.000000
    outer loop
      vertex 25.7000 9.4500 2.0000
      vertex 24.8000 9.4500 2.8000
      vertex 25.7000 9.4500 2.8000
    endloop
  endfacet
  facet normal -1.000000 0.000000 0.000000
    outer loop
      vertex 24.8000 9.4500 2.0000
      vertex 24.8000 8.5500 2.0000
      vertex 24.8000 8.5500 2.8000
    endloop
  endfacet
  facet normal -1.000000 0.000000 0.000000
    outer loop
      vertex 24.8000 9.4500 2.0000
      vertex 24.8000 8.5500 2.8000
      vertex 24.8000 9.4500 2.8000
    endloop
  endfacet
  facet normal 0.000000 0.000000 1.000000
    outer loop
      vertex 26.6000 9.4500 2.8000
      vertex 26.6000 8.5500 2.8000
      vertex 29.3000 8.5500 2.8000
    endloop
  endfacet
  facet normal 0.000000 0.000000 -1.000000
    outer loop
      vertex 29.3000 8.5500 2.0000
      vertex 26.6000 8.5500 2.0000
      vertex 26.6000 9.4500 2.0000
    endloop
  endfacet
  facet normal 0.000000 -0.000000 1.000000
    outer loop
      vertex 29.3000 8.5500 2.8000
      vertex 29.3000 9.4500 2.8000
      vertex 26.6000 9.4500 2.8000
    endloop
  endfacet
  facet normal 0.000000 0.000000 -1.000000
    outer loop
      vertex 26.6000 9.4500 2.0000
      vertex 29.3000 9.4500 2.0000
      vertex 29.3000 8.5500 2.0000
    endloop
  endfacet
  facet normal 0.000000 -1.000000 0.000000
    outer loop
      vertex 26.6000 8.5500 2.0000
      vertex 29.3000 8.5500 2.0000
      vertex 29.3000 8.5500 2.8000
    endloop
  endfacet
  facet normal 0.000000 -1.000000 0.000000
    outer loop
      vertex 26.6000 8.5500 2.0000
      vertex 29.3000 8.5500 2.8000
      vertex 26.6000 8.5500 2.8000
    endloop
  endfacet
  facet normal 1.000000 0.000000 0.000000
    outer loop
      vertex 29.3000 8.5500 2.0000
      vertex 29.3000 9.4500 2.0000
      vertex 29.3000 9.4500 2.8000
    endloop
  endfacet
  facet normal 1.000000 0.000000 0.000000
    outer loop
      vertex 29.3000 8.5500 2.0000
      vertex 29.3000 9.4500 2.8000
      vertex 29.3000 8.5500 2.8000
    endloop
  endfacet
  facet normal 0.000000 1.000000 0.000000
    outer loop
      vertex 29.3000 9.4500 2.0000
      vertex 26.6000 9.4500 2.0000
      vertex 26.6000 9.4500 2.8000
    endloop
  endfacet
  facet normal 0.000000 1.000000 -0.000000
    outer loop
      vertex 29.3000 9.4500 2.0000
      vertex 26.6000 9.4500 2.8000
      vertex 29.3000 9.4500 2.8000
    endloop
  endfacet
  facet normal -1.000000 0.000000 0.000000
    outer loop
      vertex 26.6000 9.4500 2.0000
      vertex 26.6000 8.5500 2.0000
      vertex 26.6000 8.5500 2.8000
    endloop
  endfacet
  facet normal -1.000000 0.000000 0.000000
    outer loop
      vertex 26.6000 9.4500 2.0000
      vertex 26.6000 8.5500 2.8000
      vertex 26.6000 9.4500 2.8000
    endloop
  endfacet
  facet normal 0.000000 0.000000 1.000000
    outer loop
      vertex 30.2000 9.4500 2.8000
      vertex 30.2000 8.5500 2.8000
      vertex 31.1000 8.5500 2.8000
    endloop
  endfacet
  facet normal 0.000000 0.000000 -1.000000
    outer loop
      vertex 31.1000 8.5500 2.0000
      vertex 30.2000 8.5500 2.0000
      vertex 30.2000 9.4500 2.0000
    endloop
  endfacet
  facet normal 0.000000 -0.000000 1.000000
    outer loop
      vertex 31.1000 8.5500 2.8000
      vertex 31.1000 9.4500 2.8000
      vertex 30.2000 9.4500 2.8000
    endloop
  endfacet
  facet normal 0.000000 0.000000 -1.000000
    outer loop
      vertex 30.2000 9.4500 2.0000
      vertex 31.1000 9.4500 2.0000
      vertex 31.1000 8.5500 2.0000
    endloop
  endfacet
  facet normal 0.000000 -1.000000 0.000000
    outer loop
      vertex 30.2000 8.5500 2.0000
      vertex 31.1000 8.5500 2.0000
      vertex 31.1000 8.5500 2.8000
    endloop
  endfacet
  facet normal 0.000000 -1.000000 0.000000
    outer loop
      vertex 30.2000 8.5500 2.0000
      vertex 31.1000 8.5500 2.8000
      vertex 30.2000 8.5500 2.8000
    endloop
  endfacet
  facet normal 1.000000 0.000000 0.000000
    outer loop
      vertex 31.1000 8.5500 2.0000
      vertex 31.1000 9.4500 2.0000
      vertex 31.1000 9.4500 2.8000
    endloop
  endfacet
  facet normal 1.000000 0.000000 0.000000
    outer loop
      vertex 31.1000 8.5500 2.0000
      vertex 31.1000 9.4500 2.8000
      vertex 31.1000 8.5500 2.8000
    endloop
  endfacet
  facet normal 0.000000 1.000000 0.000000
    outer loop
      vertex 31.1000 9.4500 2.0000
      vertex 30.2000 9.4500 2.0000
      vertex 30.2000 9.4500 2.8000
    endloop
  endfacet
  facet normal 0.000000 1.000000 -0.000000
    outer loop
      vertex 31.1000 9.4500 2.0000
      vertex 30.2000 9.4500 2.8000
      vertex 31.1000 9.4500 2.8000
    endloop
  endfacet
  facet normal -1.000000 0.000000 0.000000
    outer loop
      vertex 30.2000 9.4500 2.0000
      vertex 30.2000 8.5500 2.0000
      vertex 30.2000 8.5500 2.8000
    endloop
  endfacet
  facet normal -1.000000 0.000000 0.000000
    outer loop
      vertex 30.2000 9.4500 2.0000
      vertex 30.2000 8.5500 2.8000
      vertex 30.2000 9.4500 2.8000
    endloop
  endfacet
  facet normal 0.000000 0.000000 1.000000
    outer loop
      vertex 33.8000 9.4500 2.8000
      vertex 33.8000 8.5500 2.8000
      vertex 34.7000 8.5500 2.8000
    endloop
  endfacet
  facet normal 0.000000 0.000000 -1.000000
    outer loop
      vertex 34.7000 8.5500 2.0000
      vertex 33.8000 8.5500 2.0000
      vertex 33.8000 9.4500 2.0000
    endloop
  endfacet
  facet normal 0.000000 -0.000000 1.000000
    outer loop
      vertex 34.7000 8.5500 2.8000
      vertex 34.7000 9.4500 2.8000
      vertex 33.8000 9.4500 2.8000
    endloop
  endfacet
  facet normal 0.000000 0.000000 -1.000000
    outer loop
      vertex 33.8000 9.4500 2.0000
      vertex 34.7000 9.4500 2.0000
      vertex 34.7000 8.5500 2.0000
    endloop
  endfacet
  facet normal 0.000000 -1.000000 0.000000
    outer loop
      vertex 33.8000 8.5500 2.0000
      vertex 34.7000 8.5500 2.0000
      vertex 34.7000 8.5500 2.8000
    endloop
  endfacet
  facet normal 0.000000 -1.000000 0.000000
    outer loop
      vertex 33.8000 8.5500 2.0000
      vertex 34.7000 8.5500 2.8000
      vertex 33.8000 8.5500 2.8000
    endloop
  endfacet
  facet normal 1.000000 0.000000 0.000000
    outer loop
      vertex 34.7000 8.5500 2.0000
      vertex 34.7000 9.4500 2.0000
      vertex 34.7000 9.4500 2.8000
    endloop
  endfacet
  facet normal 1.000000 0.000000 0.000000
    outer loop
      vertex 34.7000 8.5500 2.0000
      vertex 34.7000 9.4500 2.8000
      vertex 34.7000 8.5500 2.8000
    endloop
  endfacet
  facet normal 0.000000 1.000000 0.000000
    outer loop
      vertex 34.7000 9.4500 2.0000
      vertex 33.8000 9.4500 2.0000
      vertex 33.8000 9.4500 2.8000
    endloop
  endfacet
  facet normal 0.000000 1.000000 -0.000000
    outer loop
      vertex 34.7000 9.4500 2.0000
      vertex 33.8000 9.4500 2.8000
      vertex 34.7000 9.4500 2.8000
    endloop
  endfacet
  facet normal -1.000000 0.000000 0.000000
    outer loop
      vertex 33.8000 9.4500 2.0000
      vertex 33.8000 8.5500 2.0000
      vertex 33.8000 8.5500 2.8000
    endloop
  endfacet
  facet normal -1.000000 0.000000 0.000000
    outer loop
      vertex 33.8000 9.4500 2.0000
      vertex 33.8000 8.5500 2.8000
      vertex 33.8000 9.4500 2.8000
    endloop
  endfacet
  facet normal 0.000000 0.000000 1.000000
    outer loop
      vertex 35.6000 9.4500 2.8000
      vertex 35.6000 8.5500 2.8000
      vertex 38.3000 8.5500 2.8000
    endloop
  endfacet
  facet normal 0.000000 0.000000 -1.000000
    outer loop
      vertex 38.3000 8.5500 2.0000
      vertex 35.6000 8.5500 2.0000
      vertex 35.6000 9.4500 2.0000
    endloop
  endfacet
  facet normal 0.000000 -0.000000 1.000000
    outer loop
      vertex 38.3000 8.5500 2.8000
      vertex 38.3000 9.4500 2.8000
      vertex 35.6000 9.4500 2.8000
    endloop
  endfacet
  facet normal 0.000000 0.000000 -1.000000
    outer loop
      vertex 35.6000 9.4500 2.0000
      vertex 38.3000 9.4500 2.0000
      vertex 38.3000 8.5500 2.0000
    endloop
  endfacet
  facet normal 0.000000 -1.000000 0.000000
    outer loop
      vertex 35.6000 8.5500 2.0000
      vertex 38.3000 8.5500 2.0000
      vertex 38.3000 8.5500 2.8000
    endloop
  endfacet
  facet normal 0.000000 -1.000000 0.000000
    outer loop
      vertex 35.6000 8.5500 2.0000
      vertex 38.3000 8.5500 2.8000
      vertex 35.6000 8.5500 2.8000
    endloop
  endfacet
  facet normal 1.000000 0.000000 0.000000
    outer loop
      vertex 38.3000 8.5500 2.0000
      vertex 38.3000 9.4500 2.0000
      vertex 38.3000 9.4500 2.8000
    endloop
  endfacet
  facet normal 1.000000 0.000000 0.000000
    outer loop
      vertex 38.3000 8.5500 2.0000
      vertex 38.3000 9.4500 2.8000
      vertex 38.3000 8.5500 2.8000
    endloop
  endfacet
  facet normal 0.000000 1.000000 0.000000
    outer loop
      vertex 38.3000 9.4500 2.0000
      vertex 35.6000 9.4500 2.0000
      vertex 35.6000 9.4500 2.8000
    endloop
  endfacet
  facet normal 0.000000 1.000000 -0.000000
    outer loop
      vertex 38.3000 9.4500 2.0000
      vertex 35.6000 9.4500 2.8000
      vertex 38.3000 9.4500 2.8000
    endloop
  endfacet
  facet normal -1.000000 0.000000 0.000000
    outer loop
      vertex 35.6000 9.4500 2.0000
      vertex 35.6000 8.5500 2.0000
      vertex 35.6000 8.5500 2.8000
    endloop
  endfacet
  facet normal -1.000000 0.000000 0.000000
    outer loop
      vertex 35.6000 9.4500 2.0000
      vertex 35.6000 8.5500 2.8000
      vertex 35.6000 9.4500 2.8000
    endloop
  endfacet
  facet normal 0.000000 0.000000 1.000000
    outer loop
      vertex 39.2000 9.4500 2.8000
      vertex 39.2000 8.5500 2.8000
      vertex 40.1000 8.5500 2.8000
    endloop
  endfacet
  facet normal 0.000000 0.000000 -1.000000
    outer loop
      vertex 40.1000 8.5500 2.0000
      vertex 39.2000 8.5500 2.0000
      vertex 39.2000 9.4500 2.0000
    endloop
  endfacet
  facet normal 0.000000 -0.000000 1.000000
    outer loop
      vertex 40.1000 8.5500 2.8000
      vertex 40.1000 9.4500 2.8000
      vertex 39.2000 9.4500 2.8000
    endloop
  endfacet
  facet normal 0.000000 0.000000 -1.000000
    outer loop
      vertex 39.2000 9.4500 2.0000
      vertex 40.1000 9.4500 2.0000
      vertex 40.1000 8.5500 2.0000
    endloop
  endfacet
  facet normal 0.000000 -1.000000 0.000000
    outer loop
      vertex 39.2000 8.5500 2.0000
      vertex 40.1000 8.5500 2.0000
      vertex 40.1000 8.5500 2.8000
    endloop
  endfacet
  facet normal 0.000000 -1.000000 0.000000
    outer loop
      vertex 39.2000 8.5500 2.0000
      vertex 40.1000 8.5500 2.8000
      vertex 39.2000 8.5500 2.8000
    endloop
  endfacet
  facet normal 1.000000 0.000000 0.000000
    outer loop
      vertex 40.1000 8.5500 2.0000
      vertex 40.1000 9.4500 2.0000
      vertex 40.1000 9.4500 2.8000
    endloop
  endfacet
  facet normal 1.000000 0.000000 0.000000
    outer loop
      vertex 40.1000 8.5500 2.0000
      vertex 40.1000 9.4500 2.8000
      vertex 40.1000 8.5500 2.8000
    endloop
  endfacet
  facet normal 0.000000 1.000000 0.000000
    outer loop
      vertex 40.1000 9.4500 2.0000
      vertex 39.2000 9.4500 2.0000
      vertex 39.2000 9.4500 2.8000
    endloop
  endfacet
  facet normal 0.000000 1.000000 -0.000000
    outer loop
      vertex 40.1000 9.4500 2.0000
      vertex 39.2000 9.4500 2.8000
      vertex 40.1000 9.4500 2.8000
    endloop
  endfacet
  facet normal -1.000000 0.000000 0.000000
    outer loop
      vertex 39.2000 9.4500 2.0000
      vertex 39.2000 8.5500 2.0000
      vertex 39.2000 8.5500 2.8000
    endloop
  endfacet
  facet normal -1.000000 0.000000 0.000000
    outer loop
      vertex 39.2000 9.4500 2.0000
      vertex 39.2000 8.5500 2.8000
      vertex 39.2000 9.4500 2.8000
    endloop
  endfacet
  facet normal 0.000000 0.000000 1.000000
    outer loop
      vertex 42.8000 9.4500 2.8000
      vertex 42.8000 8.5500 2.8000
      vertex 45.5000 8.5500 2.8000
    endloop
  endfacet
  facet normal 0.000000 0.000000 -1.000000
    outer loop
      vertex 45.5000 8.5500 2.0000
      vertex 42.8000 8.5500 2.0000
      vertex 42.8000 9.4500 2.0000
    endloop
  endfacet
  facet normal 0.000000 -0.000000 1.000000
    outer loop
      vertex 45.5000 8.5500 2.8000
      vertex 45.5000 9.4500 2.8000
      vertex 42.8000 9.4500 2.8000
    endloop
  endfacet
  facet normal 0.000000 0.000000 -1.000000
    outer loop
      vertex 42.8000 9.4500 2.0000
      vertex 45.5000 9.4500 2.0000
      vertex 45.5000 8.5500 2.0000
    endloop
  endfacet
  facet normal 0.000000 -1.000000 0.000000
    outer loop
      vertex 42.8000 8.5500 2.0000
      vertex 45.5000 8.5500 2.0000
      vertex 45.5000 8.5500 2.8000
    endloop
  endfacet
  facet normal 0.000000 -1.000000 0.000000
    outer loop
      vertex 42.8000 8.5500 2.0000
      vertex 45.5000 8.5500 2.8000
      vertex 42.8000 8.5500 2.8000
    endloop
  endfacet
  facet normal 1.000000 0.000000 0.000000
    outer loop
      vertex 45.5000 8.5500 2.0000
      vertex 45.5000 9.4500 2.0000
      vertex 45.5000 9.4500 2.8000
    endloop
  endfacet
  facet normal 1.000000 0.000000 0.000000
    outer loop
      vertex 45.5000 8.5500 2.0000
      vertex 45.5000 9.4500 2.8000
      vertex 45.5000 8.5500 2.8000
    endloop
  endfacet
  facet normal 0.000000 1.000000 0.000000
    outer loop
      vertex 45.5000 9.4500 2.0000
      vertex 42.8000 9.4500 2.0000
      vertex 42.8000 9.4500 2.8000
    endloop
  endfacet
  facet normal 0.000000 1.000000 -0.000000
    outer loop
      vertex 45.5000 9.4500 2.0000
      vertex 42.8000 9.4500 2.8000
      vertex 45.5000 9.4500 2.8000
    endloop
  endfacet
  facet normal -1.000000 0.000000 0.000000
    outer loop
      vertex 42.8000 9.4500 2.0000
      vertex 42.8000 8.5500 2.0000
      vertex 42.8000 8.5500 2.8000
    endloop
  endfacet
  facet normal -1.000000 0.000000 0.000000
    outer loop
      vertex 42.8000 9.4500 2.0000
      vertex 42.8000 8.5500 2.8000
      vertex 42.8000 9.4500 2.8000
    endloop
  endfacet
  facet normal 0.000000 0.000000 1.000000
    outer loop
      vertex 46.4000 9.4500 2.8000
      vertex 46.4000 8.5500 2.8000
      vertex 49.1000 8.5500 2.8000
    endloop
  endfacet
  facet normal 0.000000 0.000000 -1.000000
    outer loop
      vertex 49.1000 8.5500 2.0000
      vertex 46.4000 8.5500 2.0000
      vertex 46.4000 9.4500 2.0000
    endloop
  endfacet
  facet normal 0.000000 -0.000000 1.000000
    outer loop
      vertex 49.1000 8.5500 2.8000
      vertex 49.1000 9.4500 2.8000
      vertex 46.4000 9.4500 2.8000
    endloop
  endfacet
  facet normal 0.000000 0.000000 -1.000000
    outer loop
      vertex 46.4000 9.4500 2.0000
      vertex 49.1000 9.4500 2.0000
      vertex 49.1000 8.5500 2.0000
    endloop
  endfacet
  facet normal 0.000000 -1.000000 0.000000
    outer loop
      vertex 46.4000 8.5500 2.0000
      vertex 49.1000 8.5500 2.0000
      vertex 49.1000 8.5500 2.8000
    endloop
  endfacet
  facet normal 0.000000 -1.000000 0.000000
    outer loop
      vertex 46.4000 8.5500 2.0000
      vertex 49.1000 8.5500 2.8000
      vertex 46.4000 8.5500 2.8000
    endloop
  endfacet
  facet normal 1.000000 0.000000 0.000000
    outer loop
      vertex 49.1000 8.5500 2.0000
      vertex 49.1000 9.4500 2.0000
      vertex 49.1000 9.4500 2.8000
    endloop
  endfacet
  facet normal 1.000000 0.000000 0.000000
    outer loop
      vertex 49.1000 8.5500 2.0000
      vertex 49.1000 9.4500 2.8000
      vertex 49.1000 8.5500 2.8000
    endloop
  endfacet
  facet normal 0.000000 1.000000 0.000000
    outer loop
      vertex 49.1000 9.4500 2.0000
      vertex 46.4000 9.4500 2.0000
      vertex 46.4000 9.4500 2.8000
    endloop
  endfacet
  facet normal 0.000000 1.000000 -0.000000
    outer loop
      vertex 49.1000 9.4500 2.0000
      vertex 46.4000 9.4500 2.8000
      vertex 49.1000 9.4500 2.8000
    endloop
  endfacet
  facet normal -1.000000 0.000000 0.000000
    outer loop
      vertex 46.4000 9.4500 2.0000
      vertex 46.4000 8.5500 2.0000
      vertex 46.4000 8.5500 2.8000
    endloop
  endfacet
  facet normal -1.000000 0.000000 0.000000
    outer loop
      vertex 46.4000 9.4500 2.0000
      vertex 46.4000 8.5500 2.8000
      vertex 46.4000 9.4500 2.8000
    endloop
  endfacet
  facet normal 0.000000 0.000000 1.000000
    outer loop
      vertex 50.0000 9.4500 2.8000
      vertex 50.0000 8.5500 2.8000
      vertex 52.7000 8.5500 2.8000
    endloop
  endfacet
  facet normal 0.000000 0.000000 -1.000000
    outer loop
      vertex 52.7000 8.5500 2.0000
      vertex 50.0000 8.5500 2.0000
      vertex 50.0000 9.4500 2.0000
    endloop
  endfacet
  facet normal 0.000000 -0.000000 1.000000
    outer loop
      vertex 52.7000 8.5500 2.8000
      vertex 52.7000 9.4500 2.8000
      vertex 50.0000 9.4500 2.8000
    endloop
  endfacet
  facet normal 0.000000 0.000000 -1.000000
    outer loop
      vertex 50.0000 9.4500 2.0000
      vertex 52.7000 9.4500 2.0000
      vertex 52.7000 8.5500 2.0000
    endloop
  endfacet
  facet normal 0.000000 -1.000000 0.000000
    outer loop
      vertex 50.0000 8.5500 2.0000
      vertex 52.7000 8.5500 2.0000
      vertex 52.7000 8.5500 2.8000
    endloop
  endfacet
  facet normal 0.000000 -1.000000 0.000000
    outer loop
      vertex 50.0000 8.5500 2.0000
      vertex 52.7000 8.5500 2.8000
      vertex 50.0000 8.5500 2.8000
    endloop
  endfacet
  facet normal 1.000000 0.000000 0.000000
    outer loop
      vertex 52.7000 8.5500 2.0000
      vertex 52.7000 9.4500 2.0000
      vertex 52.7000 9.4500 2.8000
    endloop
  endfacet
  facet normal 1.000000 0.000000 0.000000
    outer loop
      vertex 52.7000 8.5500 2.0000
      vertex 52.7000 9.4500 2.8000
      vertex 52.7000 8.5500 2.8000
    endloop
  endfacet
  facet normal 0.000000 1.000000 0.000000
    outer loop
      vertex 52.7000 9.4500 2.0000
      vertex 50.0000 9.4500 2.0000
      vertex 50.0000 9.4500 2.8000
    endloop
  endfacet
  facet normal 0.000000 1.000000 -0.000000
    outer loop
      vertex 52.7000 9.4500 2.0000
      vertex 50.0000 9.4500 2.8000
      vertex 52.7000 9.4500 2.8000
    endloop
  endfacet
  facet normal -1.000000 0.000000 0.000000
    outer loop
      vertex 50.0000 9.4500 2.0000
      vertex 50.0000 8.5500 2.0000
      vertex 50.0000 8.5500 2.8000
    endloop
  endfacet
  facet normal -1.000000 0.000000 0.000000
    outer loop
      vertex 50.0000 9.4500 2.0000
      vertex 50.0000 8.5500 2.8000
      vertex 50.0000 9.4500 2.8000
    endloop
  endfacet
  facet normal 0.000000 0.000000 1.000000
    outer loop
      vertex 55.4000 9.4500 2.8000
      vertex 55.4000 8.5500 2.8000
      vertex 58.1000 8.5500 2.8000
    endloop
  endfacet
  facet normal 0.000000 0.000000 -1.000000
    outer loop
      vertex 58.1000 8.5500 2.0000
      vertex 55.4000 8.5500 2.0000
      vertex 55.4000 9.4500 2.0000
    endloop
  endfacet
  facet normal 0.000000 -0.000000 1.000000
    outer loop
      vertex 58.1000 8.5500 2.8000
      vertex 58.1000 9.4500 2.8000
      vertex 55.4000 9.4500 2.8000
    endloop
  endfacet
  facet normal 0.000000 0.000000 -1.000000
    outer loop
      vertex 55.4000 9.4500 2.0000
      vertex 58.1000 9.4500 2.0000
      vertex 58.1000 8.5500 2.0000
    endloop
  endfacet
  facet normal 0.000000 -1.000000 0.000000
    outer loop
      vertex 55.4000 8.5500 2.0000
      vertex 58.1000 8.5500 2.0000
      vertex 58.1000 8.5500 2.8000
    endloop
  endfacet
  facet normal 0.000000 -1.000000 0.000000
    outer loop
      vertex 55.4000 8.5500 2.0000
      vertex 58.1000 8.5500 2.8000
      vertex 55.4000 8.5500 2.8000
    endloop
  endfacet
  facet normal 1.000000 0.000000 0.000000
    outer loop
      vertex 58.1000 8.5500 2.0000
      vertex 58.1000 9.4500 2.0000
      vertex 58.1000 9.4500 2.8000
    endloop
  endfacet
  facet normal 1.000000 0.000000 0.000000
    outer loop
      vertex 58.1000 8.5500 2.0000
      vertex 58.1000 9.4500 2.8000
      vertex 58.1000 8.5500 2.8000
    endloop
  endfacet
  facet normal 0.000000 1.000000 0.000000
    outer loop
      vertex 58.1000 9.4500 2.0000
      vertex 55.4000 9.4500 2.0000
      vertex 55.4000 9.4500 2.8000
    endloop
  endfacet
  facet normal 0.000000 1.000000 -0.000000
    outer loop
      vertex 58.1000 9.4500 2.0000
      vertex 55.4000 9.4500 2.8000
      vertex 58.1000 9.4500 2.8000
    endloop
  endfacet
  facet normal -1.000000 0.000000 0.000000
    outer loop
      vertex 55.4000 9.4500 2.0000
      vertex 55.4000 8.5500 2.0000
      vertex 55.4000 8.5500 2.8000
    endloop
  endfacet
  facet normal -1.000000 0.000000 0.000000
    outer loop
      vertex 55.4000 9.4500 2.0000
      vertex 55.4000 8.5500 2.8000
      vertex 55.4000 9.4500 2.8000
    endloop
  endfacet
  facet normal 0.000000 -0.000000 1.000000
    outer loop
      vertex 5.5000 10.0000 2.8000
      vertex 5.5000 14.0000 2.8000
      vertex 4.5000 14.0000 2.8000
    endloop
  endfacet
  facet normal 0.000000 0.000000 -1.000000
    outer loop
      vertex 4.5000 14.0000 2.0000
      vertex 5.5000 14.0000 2.0000
      vertex 5.5000 10.0000 2.0000
    endloop
  endfacet
  facet normal 0.000000 0.000000 1.000000
    outer loop
      vertex 4.5000 14.0000 2.8000
      vertex 4.5000 10.0000 2.8000
      vertex 5.5000 10.0000 2.8000
    endloop
  endfacet
  facet normal 0.000000 0.000000 -1.000000
    outer loop
      vertex 5.5000 10.0000 2.0000
      vertex 4.5000 10.0000 2.0000
      vertex 4.5000 14.0000 2.0000
    endloop
  endfacet
  facet normal 0.000000 1.000000 0.000000
    outer loop
      vertex 5.5000 14.0000 2.0000
      vertex 4.5000 14.0000 2.0000
      vertex 4.5000 14.0000 2.8000
    endloop
  endfacet
  facet normal 0.000000 1.000000 -0.000000
    outer loop
      vertex 5.5000 14.0000 2.0000
      vertex 4.5000 14.0000 2.8000
      vertex 5.5000 14.0000 2.8000
    endloop
  endfacet
  facet normal -1.000000 0.000000 0.000000
    outer loop
      vertex 4.5000 14.0000 2.0000
      vertex 4.5000 10.0000 2.0000
      vertex 4.5000 10.0000 2.8000
    endloop
  endfacet
  facet normal -1.000000 0.000000 0.000000
    outer loop
      vertex 4.5000 14.0000 2.0000
      vertex 4.5000 10.0000 2.8000
      vertex 4.5000 14.0000 2.8000
    endloop
  endfacet
  facet normal 0.000000 -1.000000 0.000000
    outer loop
      vertex 4.5000 10.0000 2.0000
      vertex 5.5000 10.0000 2.0000
      vertex 5.5000 10.0000 2.8000
    endloop
  endfacet
  facet normal 0.000000 -1.000000 0.000000
    outer loop
      vertex 4.5000 10.0000 2.0000
      vertex 5.5000 10.0000 2.8000
      vertex 4.5000 10.0000 2.8000
    endloop
  endfacet
  facet normal 1.000000 0.000000 0.000000
    outer loop
      vertex 5.5000 10.0000 2.0000
      vertex 5.5000 14.0000 2.0000
      vertex 5.5000 14.0000 2.8000
    endloop
  endfacet
  facet normal 1.000000 0.000000 0.000000
    outer loop
      vertex 5.5000 10.0000 2.0000
      vertex 5.5000 14.0000 2.8000
      vertex 5.5000 10.0000 2.8000
    endloop
  endfacet
  facet normal 0.000000 0.000000 1.000000
    outer loop
      vertex 44.0000 28.4200 2.8000
      vertex 55.0200 19.6800 2.8000
      vertex 55.8750 20.4400 2.8000
    endloop
  endfacet
  facet normal -0.000000 0.000000 -1.000000
    outer loop
      vertex 55.8750 20.4400 2.0000
      vertex 55.0200 19.6800 2.0000
      vertex 44.0000 28.4200 2.0000
    endloop
  endfacet
  facet normal 0.000000 0.000000 1.000000
    outer loop
      vertex 55.8750 20.4400 2.8000
      vertex 45.0450 28.0875 2.8000
      vertex 44.0000 28.4200 2.8000
    endloop
  endfacet
  facet normal 0.000000 0.000000 -1.000000
    outer loop
      vertex 44.0000 28.4200 2.0000
      vertex 45.0450 28.0875 2.0000
      vertex 55.8750 20.4400 2.0000
    endloop
  endfacet
  facet normal 0.664364 -0.747409 0.000000
    outer loop
      vertex 55.0200 19.6800 2.0000
      vertex 55.8750 20.4400 2.0000
      vertex 55.8750 20.4400 2.8000
    endloop
  endfacet
  facet normal 0.664364 -0.747409 0.000000
    outer loop
      vertex 55.0200 19.6800 2.0000
      vertex 55.8750 20.4400 2.8000
      vertex 55.0200 19.6800 2.8000
    endloop
  endfacet
  facet normal 0.576824 0.816869 0.000000
    outer loop
      vertex 55.8750 20.4400 2.0000
      vertex 45.0450 28.0875 2.0000
      vertex 45.0450 28.0875 2.8000
    endloop
  endfacet
  facet normal 0.576824 0.816869 -0.000000
    outer loop
      vertex 55.8750 20.4400 2.0000
      vertex 45.0450 28.0875 2.8000
      vertex 55.8750 20.4400 2.8000
    endloop
  endfacet
  facet normal 0.303204 0.952926 0.000000
    outer loop
      vertex 45.0450 28.0875 2.0000
      vertex 44.0000 28.4200 2.0000
      vertex 44.0000 28.4200 2.8000
    endloop
  endfacet
  facet normal 0.303204 0.952926 -0.000000
    outer loop
      vertex 45.0450 28.0875 2.0000
      vertex 44.0000 28.4200 2.8000
      vertex 45.0450 28.0875 2.8000
    endloop
  endfacet
  facet normal -0.621395 -0.783498 0.000000
    outer loop
      vertex 44.0000 28.4200 2.0000
      vertex 55.0200 19.6800 2.0000
      vertex 55.0200 19.6800 2.8000
    endloop
  endfacet
  facet normal -0.621395 -0.783498 0.000000
    outer loop
      vertex 44.0000 28.4200 2.0000
      vertex 55.0200 19.6800 2.8000
      vertex 44.0000 28.4200 2.8000
    endloop
  endfacet
  facet normal 0.000000 0.000000 1.000000
    outer loop
      vertex 46.0900 27.1850 2.8000
      vertex 46.9450 25.7600 2.8000
      vertex 47.7050 26.0450 2.8000
    endloop
  endfacet
  facet normal -0.000000 0.000000 -1.000000
    outer loop
      vertex 47.7050 26.0450 2.0000
      vertex 46.9450 25.7600 2.0000
      vertex 46.0900 27.1850 2.0000
    endloop
  endfacet
  facet normal 0.000000 0.000000 1.000000
    outer loop
      vertex 47.7050 26.0450 2.8000
      vertex 46.8500 26.9475 2.8000
      vertex 46.0900 27.1850 2.8000
    endloop
  endfacet
  facet normal 0.000000 0.000000 -1.000000
    outer loop
      vertex 46.0900 27.1850 2.0000
      vertex 46.8500 26.9475 2.0000
      vertex 47.7050 26.0450 2.0000
    endloop
  endfacet
  facet normal 0.351123 -0.936329 0.000000
    outer loop
      vertex 46.9450 25.7600 2.0000
      vertex 47.7050 26.0450 2.0000
      vertex 47.7050 26.0450 2.8000
    endloop
  endfacet
  facet normal 0.351123 -0.936329 0.000000
    outer loop
      vertex 46.9450 25.7600 2.0000
      vertex 47.7050 26.0450 2.8000
      vertex 46.9450 25.7600 2.8000
    endloop
  endfacet
  facet normal 0.725953 0.687745 0.000000
    outer loop
      vertex 47.7050 26.0450 2.0000
      vertex 46.8500 26.9475 2.0000
      vertex 46.8500 26.9475 2.8000
    endloop
  endfacet
  facet normal 0.725953 0.687745 -0.000000
    outer loop
      vertex 47.7050 26.0450 2.0000
      vertex 46.8500 26.9475 2.8000
      vertex 47.7050 26.0450 2.8000
    endloop
  endfacet
  facet normal 0.298275 0.954480 0.000000
    outer loop
      vertex 46.8500 26.9475 2.0000
      vertex 46.0900 27.1850 2.0000
      vertex 46.0900 27.1850 2.8000
    endloop
  endfacet
  facet normal 0.298275 0.954480 -0.000000
    outer loop
      vertex 46.8500 26.9475 2.0000
      vertex 46.0900 27.1850 2.8000
      vertex 46.8500 26.9475 2.8000
    endloop
  endfacet
  facet normal -0.857493 -0.514496 0.000000
    outer loop
      vertex 46.0900 27.1850 2.0000
      vertex 46.9450 25.7600 2.0000
      vertex 46.9450 25.7600 2.8000
    endloop
  endfacet
  facet normal -0.857493 -0.514496 0.000000
    outer loop
      vertex 46.0900 27.1850 2.0000
      vertex 46.9450 25.7600 2.8000
      vertex 46.0900 27.1850 2.8000
    endloop
  endfacet
  facet normal 0.000000 0.000000 1.000000
    outer loop
      vertex 55.8750 20.4400 2.8000
      vertex 57.2050 16.8300 2.8000
      vertex 58.5350 13.7900 2.8000
    endloop
  endfacet
  facet normal 0.000000 0.000000 -1.000000
    outer loop
      vertex 58.5350 13.7900 2.0000
      vertex 57.2050 16.8300 2.0000
      vertex 55.8750 20.4400 2.0000
    endloop
  endfacet
  facet normal 0.000000 0.000000 1.000000
    outer loop
      vertex 55.8750 20.4400 2.8000
      vertex 58.5350 13.7900 2.8000
      vertex 59.1050 13.9800 2.8000
    endloop
  endfacet
  facet normal -0.000000 0.000000 -1.000000
    outer loop
      vertex 59.1050 13.9800 2.0000
      vertex 58.5350 13.7900 2.0000
      vertex 55.8750 20.4400 2.0000
    endloop
  endfacet
  facet normal 0.000000 0.000000 1.000000
    outer loop
      vertex 55.8750 20.4400 2.8000
      vertex 59.1050 13.9800 2.8000
      vertex 57.8700 17.0200 2.8000
    endloop
  endfacet
  facet normal -0.000000 -0.000000 -1.000000
    outer loop
      vertex 57.8700 17.0200 2.0000
      vertex 59.1050 13.9800 2.0000
      vertex 55.8750 20.4400 2.0000
    endloop
  endfacet
  facet normal 0.000000 0.000000 1.000000
    outer loop
      vertex 57.8700 17.0200 2.8000
      vertex 56.2550 20.6300 2.8000
      vertex 55.8750 20.4400 2.8000
    endloop
  endfacet
  facet normal 0.000000 0.000000 -1.000000
    outer loop
      vertex 55.8750 20.4400 2.0000
      vertex 56.2550 20.6300 2.0000
      vertex 57.8700 17.0200 2.0000
    endloop
  endfacet
  facet normal -0.916157 -0.400819 0.000000
    outer loop
      vertex 57.2050 16.8300 2.0000
      vertex 58.5350 13.7900 2.0000
      vertex 58.5350 13.7900 2.8000
    endloop
  endfacet
  facet normal -0.916157 -0.400819 0.000000
    outer loop
      vertex 57.2050 16.8300 2.0000
      vertex 58.5350 13.7900 2.8000
      vertex 57.2050 16.8300 2.8000
    endloop
  endfacet
  facet normal 0.316228 -0.948683 0.000000
    outer loop
      vertex 58.5350 13.7900 2.0000
      vertex 59.1050 13.9800 2.0000
      vertex 59.1050 13.9800 2.8000
    endloop
  endfacet
  facet normal 0.316228 -0.948683 0.000000
    outer loop
      vertex 58.5350 13.7900 2.0000
      vertex 59.1050 13.9800 2.8000
      vertex 58.5350 13.7900 2.8000
    endloop
  endfacet
  facet normal 0.926467 0.376377 0.000000
    outer loop
      vertex 59.1050 13.9800 2.0000
      vertex 57.8700 17.0200 2.0000
      vertex 57.8700 17.0200 2.8000
    endloop
  endfacet
  facet normal 0.926467 0.376377 -0.000000
    outer loop
      vertex 59.1050 13.9800 2.0000
      vertex 57.8700 17.0200 2.8000
      vertex 59.1050 13.9800 2.8000
    endloop
  endfacet
  facet normal 0.912818 0.408366 0.000000
    outer loop
      vertex 57.8700 17.0200 2.0000
      vertex 56.2550 20.6300 2.0000
      vertex 56.2550 20.6300 2.8000
    endloop
  endfacet
  facet normal 0.912818 0.408366 -0.000000
    outer loop
      vertex 57.8700 17.0200 2.0000
      vertex 56.2550 20.6300 2.8000
      vertex 57.8700 17.0200 2.8000
    endloop
  endfacet
  facet normal -0.447214 0.894427 0.000000
    outer loop
      vertex 56.2550 20.6300 2.0000
      vertex 55.8750 20.4400 2.0000
      vertex 55.8750 20.4400 2.8000
    endloop
  endfacet
  facet normal -0.447214 0.894427 0.000000
    outer loop
      vertex 56.2550 20.6300 2.0000
      vertex 55.8750 20.4400 2.8000
      vertex 56.2550 20.6300 2.8000
    endloop
  endfacet
  facet normal -0.938343 -0.345705 0.000000
    outer loop
      vertex 55.8750 20.4400 2.0000
      vertex 57.2050 16.8300 2.0000
      vertex 57.2050 16.8300 2.8000
    endloop
  endfacet
  facet normal -0.938343 -0.345705 0.000000
    outer loop
      vertex 55.8750 20.4400 2.0000
      vertex 57.2050 16.8300 2.8000
      vertex 55.8750 20.4400 2.8000
    endloop
  endfacet
  facet normal 0.000000 0.000000 1.000000
    outer loop
      vertex 57.4900 13.2200 2.8000
      vertex 58.4400 6.1900 2.8000
      vertex 59.5800 6.0000 2.8000
    endloop
  endfacet
  facet normal 0.000000 0.000000 -1.000000
    outer loop
      vertex 59.5800 6.0000 2.0000
      vertex 58.4400 6.1900 2.0000
      vertex 57.4900 13.2200 2.0000
    endloop
  endfacet
  facet normal 0.000000 -0.000000 1.000000
    outer loop
      vertex 59.5800 6.0000 2.8000
      vertex 60.5300 12.8400 2.8000
      vertex 57.4900 13.2200 2.8000
    endloop
  endfacet
  facet normal 0.000000 0.000000 -1.000000
    outer loop
      vertex 57.4900 13.2200 2.0000
      vertex 60.5300 12.8400 2.0000
      vertex 59.5800 6.0000 2.0000
    endloop
  endfacet
  facet normal -0.164399 -0.986394 0.000000
    outer loop
      vertex 58.4400 6.1900 2.0000
      vertex 59.5800 6.0000 2.0000
      vertex 59.5800 6.0000 2.8000
    endloop
  endfacet
  facet normal -0.164399 -0.986394 0.000000
    outer loop
      vertex 58.4400 6.1900 2.0000
      vertex 59.5800 6.0000 2.8000
      vertex 58.4400 6.1900 2.8000
    endloop
  endfacet
  facet normal 0.990492 -0.137568 0.000000
    outer loop
      vertex 59.5800 6.0000 2.0000
      vertex 60.5300 12.8400 2.0000
      vertex 60.5300 12.8400 2.8000
    endloop
  endfacet
  facet normal 0.990492 -0.137568 0.000000
    outer loop
      vertex 59.5800 6.0000 2.0000
      vertex 60.5300 12.8400 2.8000
      vertex 59.5800 6.0000 2.8000
    endloop
  endfacet
  facet normal 0.124035 0.992278 0.000000
    outer loop
      vertex 60.5300 12.8400 2.0000
      vertex 57.4900 13.2200 2.0000
      vertex 57.4900 13.2200 2.8000
    endloop
  endfacet
  facet normal 0.124035 0.992278 -0.000000
    outer loop
      vertex 60.5300 12.8400 2.0000
      vertex 57.4900 13.2200 2.8000
      vertex 60.5300 12.8400 2.8000
    endloop
  endfacet
  facet normal -0.990992 -0.133918 0.000000
    outer loop
      vertex 57.4900 13.2200 2.0000
      vertex 58.4400 6.1900 2.0000
      vertex 58.4400 6.1900 2.8000
    endloop
  endfacet
  facet normal -0.990992 -0.133918 0.000000
    outer loop
      vertex 57.4900 13.2200 2.0000
      vertex 58.4400 6.1900 2.8000
      vertex 57.4900 13.2200 2.8000
    endloop
  endfacet
  facet normal 0.000000 0.000000 1.000000
    outer loop
      vertex 57.8700 13.3150 2.8000
      vertex 58.8200 13.3150 2.8000
      vertex 59.2950 15.4050 2.8000
    endloop
  endfacet
  facet normal 0.000000 0.000000 -1.000000
    outer loop
      vertex 59.2950 15.4050 2.0000
      vertex 58.8200 13.3150 2.0000
      vertex 57.8700 13.3150 2.0000
    endloop
  endfacet
  facet normal 0.000000 0.000000 1.000000
    outer loop
      vertex 59.2950 15.4050 2.8000
      vertex 58.6300 15.5000 2.8000
      vertex 57.8700 13.3150 2.8000
    endloop
  endfacet
  facet normal 0.000000 0.000000 -1.000000
    outer loop
      vertex 57.8700 13.3150 2.0000
      vertex 58.6300 15.5000 2.0000
      vertex 59.2950 15.4050 2.0000
    endloop
  endfacet
  facet normal 0.975133 -0.221621 0.000000
    outer loop
      vertex 58.8200 13.3150 2.0000
      vertex 59.2950 15.4050 2.0000
      vertex 59.2950 15.4050 2.8000
    endloop
  endfacet
  facet normal 0.975133 -0.221621 0.000000
    outer loop
      vertex 58.8200 13.3150 2.0000
      vertex 59.2950 15.4050 2.8000
      vertex 58.8200 13.3150 2.8000
    endloop
  endfacet
  facet normal 0.141421 0.989949 0.000000
    outer loop
      vertex 59.2950 15.4050 2.0000
      vertex 58.6300 15.5000 2.0000
      vertex 58.6300 15.5000 2.8000
    endloop
  endfacet
  facet normal 0.141421 0.989949 -0.000000
    outer loop
      vertex 59.2950 15.4050 2.0000
      vertex 58.6300 15.5000 2.8000
      vertex 59.2950 15.4050 2.8000
    endloop
  endfacet
  facet normal -0.944497 0.328521 0.000000
    outer loop
      vertex 58.6300 15.5000 2.0000
      vertex 57.8700 13.3150 2.0000
      vertex 57.8700 13.3150 2.8000
    endloop
  endfacet
  facet normal -0.944497 0.328521 0.000000
    outer loop
      vertex 58.6300 15.5000 2.0000
      vertex 57.8700 13.3150 2.8000
      vertex 58.6300 15.5000 2.8000
    endloop
  endfacet
  facet normal 0.000000 -1.000000 0.000000
    outer loop
      vertex 57.8700 13.3150 2.0000
      vertex 58.8200 13.3150 2.0000
      vertex 58.8200 13.3150 2.8000
    endloop
  endfacet
  facet normal 0.000000 -1.000000 0.000000
    outer loop
      vertex 57.8700 13.3150 2.0000
      vertex 58.8200 13.3150 2.8000
      vertex 57.8700 13.3150 2.8000
    endloop
  endfacet
  facet normal -0.000000 0.000000 1.000000
    outer loop
      vertex 58.9150 13.3150 2.8000
      vertex 59.7700 13.2200 2.8000
      vertex 60.9100 14.7400 2.8000
    endloop
  endfacet
  facet normal 0.000000 0.000000 -1.000000
    outer loop
      vertex 60.9100 14.7400 2.0000
      vertex 59.7700 13.2200 2.0000
      vertex 58.9150 13.3150 2.0000
    endloop
  endfacet
  facet normal 0.000000 0.000000 1.000000
    outer loop
      vertex 60.9100 14.7400 2.8000
      vertex 60.3400 15.1200 2.8000
      vertex 58.9150 13.3150 2.8000
    endloop
  endfacet
  facet normal 0.000000 0.000000 -1.000000
    outer loop
      vertex 58.9150 13.3150 2.0000
      vertex 60.3400 15.1200 2.0000
      vertex 60.9100 14.7400 2.0000
    endloop
  endfacet
  facet normal 0.800000 -0.600000 0.000000
    outer loop
      vertex 59.7700 13.2200 2.0000
      vertex 60.9100 14.7400 2.0000
      vertex 60.9100 14.7400 2.8000
    endloop
  endfacet
  facet normal 0.800000 -0.600000 0.000000
    outer loop
      vertex 59.7700 13.2200 2.0000
      vertex 60.9100 14.7400 2.8000
      vertex 59.7700 13.2200 2.8000
    endloop
  endfacet
  facet normal 0.554700 0.832050 0.000000
    outer loop
      vertex 60.9100 14.7400 2.0000
      vertex 60.3400 15.1200 2.0000
      vertex 60.3400 15.1200 2.8000
    endloop
  endfacet
  facet normal 0.554700 0.832050 -0.000000
    outer loop
      vertex 60.9100 14.7400 2.0000
      vertex 60.3400 15.1200 2.8000
      vertex 60.9100 14.7400 2.8000
    endloop
  endfacet
  facet normal -0.784883 0.619644 0.000000
    outer loop
      vertex 60.3400 15.1200 2.0000
      vertex 58.9150 13.3150 2.0000
      vertex 58.9150 13.3150 2.8000
    endloop
  endfacet
  facet normal -0.784883 0.619644 0.000000
    outer loop
      vertex 60.3400 15.1200 2.0000
      vertex 58.9150 13.3150 2.8000
      vertex 60.3400 15.1200 2.8000
    endloop
  endfacet
  facet normal -0.110432 -0.993884 0.000000
    outer loop
      vertex 58.9150 13.3150 2.0000
      vertex 59.7700 13.2200 2.0000
      vertex 59.7700 13.2200 2.8000
    endloop
  endfacet
  facet normal -0.110432 -0.993884 0.000000
    outer loop
      vertex 58.9150 13.3150 2.0000
      vertex 59.7700 13.2200 2.8000
      vertex 58.9150 13.3150 2.8000
    endloop
  endfacet
  facet normal -0.000000 0.000000 1.000000
    outer loop
      vertex 59.8650 13.1250 2.8000
      vertex 60.5300 12.8400 2.8000
      vertex 62.2400 13.4100 2.8000
    endloop
  endfacet
  facet normal 0.000000 0.000000 -1.000000
    outer loop
      vertex 62.2400 13.4100 2.0000
      vertex 60.5300 12.8400 2.0000
      vertex 59.8650 13.1250 2.0000
    endloop
  endfacet
  facet normal 0.000000 0.000000 1.000000
    outer loop
      vertex 62.2400 13.4100 2.8000
      vertex 61.9550 13.9800 2.8000
      vertex 59.8650 13.1250 2.8000
    endloop
  endfacet
  facet normal 0.000000 0.000000 -1.000000
    outer loop
      vertex 59.8650 13.1250 2.0000
      vertex 61.9550 13.9800 2.0000
      vertex 62.2400 13.4100 2.0000
    endloop
  endfacet
  facet normal 0.316228 -0.948683 0.000000
    outer loop
      vertex 60.5300 12.8400 2.0000
      vertex 62.2400 13.4100 2.0000
      vertex 62.2400 13.4100 2.8000
    endloop
  endfacet
  facet normal 0.316228 -0.948683 0.000000
    outer loop
      vertex 60.5300 12.8400 2.0000
      vertex 62.2400 13.4100 2.8000
      vertex 60.5300 12.8400 2.8000
    endloop
  endfacet
  facet normal 0.894427 0.447214 0.000000
    outer loop
      vertex 62.2400 13.4100 2.0000
      vertex 61.9550 13.9800 2.0000
      vertex 61.9550 13.9800 2.8000
    endloop
  endfacet
  facet normal 0.894427 0.447214 -0.000000
    outer loop
      vertex 62.2400 13.4100 2.0000
      vertex 61.9550 13.9800 2.8000
      vertex 62.2400 13.4100 2.8000
    endloop
  endfacet
  facet normal -0.378633 0.925547 0.000000
    outer loop
      vertex 61.9550 13.9800 2.0000
      vertex 59.8650 13.1250 2.0000
      vertex 59.8650 13.1250 2.8000
    endloop
  endfacet
  facet normal -0.378633 0.925547 0.000000
    outer loop
      vertex 61.9550 13.9800 2.0000
      vertex 59.8650 13.1250 2.8000
      vertex 61.9550 13.9800 2.8000
    endloop
  endfacet
  facet normal -0.393919 -0.919145 0.000000
    outer loop
      vertex 59.8650 13.1250 2.0000
      vertex 60.5300 12.8400 2.0000
      vertex 60.5300 12.8400 2.8000
    endloop
  endfacet
  facet normal -0.393919 -0.919145 0.000000
    outer loop
      vertex 59.8650 13.1250 2.0000
      vertex 60.5300 12.8400 2.8000
      vertex 59.8650 13.1250 2.8000
    endloop
  endfacet
endsolid 12key_badge_r1
