solid 8key_badge_r1
  facet normal 0.000000 0.000000 1.000000
    outer loop
      vertex 0.0000 36.0000 2.0000
      vertex 0.0000 0.0000 2.0000
      vertex 70.0000 0.0000 2.0000
    endloop
  endfacet
  facet normal 0.000000 0.000000 -1.000000
    outer loop
      vertex 70.0000 0.0000 0.0000
      vertex 0.0000 0.0000 0.0000
      vertex 0.0000 36.0000 0.0000
    endloop
  endfacet
  facet normal 0.000000 -0.000000 1.000000
    outer loop
      vertex 70.0000 0.0000 2.0000
      vertex 70.0000 36.0000 2.0000
      vertex 0.0000 36.0000 2.0000
    endloop
  endfacet
  facet normal 0.000000 0.000000 -1.000000
    outer loop
      vertex 0.0000 36.0000 0.0000
      vertex 70.0000 36.0000 0.0000
      vertex 70.0000 0.0000 0.0000
    endloop
  endfacet
  facet normal 0.000000 -1.000000 0.000000
    outer loop
      vertex 0.0000 0.0000 0.0000
      vertex 70.0000 0.0000 0.0000
      vertex 70.0000 0.0000 2.0000
    endloop
  endfacet
  facet normal 0.000000 -1.000000 0.000000
    outer loop
      vertex 0.0000 0.0000 0.0000
      vertex 70.0000 0.0000 2.0000
      vertex 0.0000 0.0000 2.0000
    endloop
  endfacet
  facet normal 1.000000 0.000000 0.000000
    outer loop
      vertex 70.0000 0.0000 0.0000
      vertex 70.0000 36.0000 0.0000
      vertex 70.0000 36.0000 2.0000
    endloop
  endfacet
  facet normal 1.000000 0.000000 0.000000
    outer loop
      vertex 70.0000 0.0000 0.0000
      vertex 70.0000 36.0000 2.0000
      vertex 70.0000 0.0000 2.0000
    endloop
  endfacet
  facet normal 0.000000 1.000000 0.000000
    outer loop
      vertex 70.0000 36.0000 0.0000
      vertex 0.0000 36.0000 0.0000
      vertex 0.0000 36.0000 2.0000
    endloop
  endfacet
  facet normal 0.000000 1.000000 -0.000000
    outer loop
      vertex 70.0000 36.0000 0.0000
      vertex 0.0000 36.0000 2.0000
      vertex 70.0000 36.0000 2.0000
    endloop
  endfacet
  facet normal -1.000000 0.000000 0.000000
    outer loop
      vertex 0.0000 36.0000 0.0000
      vertex 0.0000 0.0000 0.0000
      vertex 0.0000 0.0000 2.0000
    endloop
  endfacet
  facet normal -1.000000 0.000000 0.000000
    outer loop
      vertex 0.0000 36.0000 0.0000
      vertex 0.0000 0.0000 2.0000
      vertex 0.0000 36.0000 2.0000
    endloop
  endfacet
  facet normal 0.000000 0.000000 1.000000
    outer loop
      vertex 5.0000 9.4500 2.8000
      vertex 5.0000 8.5500 2.8000
      vertex 5.9000 8.5500 2.8000
    endloop
  endfacet
  facet normal 0.000000 0.000000 -1.000000
    outer loop
      vertex 5.9000 8.5500 2.0000
      vertex 5.0000 8.5500 2.0000
      vertex 5.0000 9.4500 2.0000
    endloop
  endfacet
  facet normal 0.000000 -0.000000 1.000000
    outer loop
      vertex 5.9000 8.5500 2.8000
      vertex 5.9000 9.4500 2.8000
      vertex 5.0000 9.4500 2.8000
    endloop
  endfacet
  facet normal 0.000000 0.000000 -1.000000
    outer loop
      vertex 5.0000 9.4500 2.0000
      vertex 5.9000 9.4500 2.0000
      vertex 5.9000 8.5500 2.0000
    endloop
  endfacet
  facet normal 0.000000 -1.000000 0.000000
    outer loop
      vertex 5.0000 8.5500 2.0000
      vertex 5.9000 8.5500 2.0000
      vertex 5.9000 8.5500 2.8000
    endloop
  endfacet
  facet normal 0.000000 -1.000000 0.000000
    outer loop
      vertex 5.0000 8.5500 2.0000
      vertex 5.9000 8.5500 2.8000
      vertex 5.0000 8.5500 2.8000
    endloop
  endfacet
  facet normal 1.000000 0.000000 0.000000
    outer loop
      vertex 5.9000 8.5500 2.0000
      vertex 5.9000 9.4500 2.0000
      vertex 5.9000 9.4500 2.8000
    endloop
  endfacet
  facet normal 1.000000 0.000000 0.000000
    outer loop
      vertex 5.9000 8.5500 2.0000
      vertex 5.9000 9.4500 2.8000
      vertex 5.9000 8.5500 2.8000
    endloop
  endfacet
  facet normal 0.000000 1.000000 0.000000
    outer loop
      vertex 5.9000 9.4500 2.0000
      vertex 5.0000 9.4500 2.0000
      vertex 5.0000 9.4500 2.8000
    endloop
  endfacet
  facet normal 0.000000 1.000000 -0.000000
    outer loop
      vertex 5.9000 9.4500 2.0000
      vertex 5.0000 9.4500 2.8000
      vertex 5.9000 9.4500 2.8000
    endloop
  endfacet
  facet normal -1.000000 0.000000 0.000000
    outer loop
      vertex 5.0000 9.4500 2.0000
      vertex 5.0000 8.5500 2.0000
      vertex 5.0000 8.5500 2.8000
    endloop
  endfacet
  facet normal -1.000000 0.000000 0.000000
    outer loop
      vertex 5.0000 9.4500 2.0000
      vertex 5.0000 8.5500 2.8000
      vertex 5.0000 9.4500 2.8000
    endloop
  endfacet
  facet normal 0.000000 0.000000 1.000000
    outer loop
      vertex 6.8000 9.4500 2.8000
      vertex 6.8000 8.5500 2.8000
      vertex 7.7000 8.5500 2.8000
    endloop
  endfacet
  facet normal 0.000000 0.000000 -1.000000
    outer loop
      vertex 7.7000 8.5500 2.0000
      vertex 6.8000 8.5500 2.0000
      vertex 6.8000 9.4500 2.0000
    endloop
  endfacet
  facet normal 0.000000 -0.000000 1.000000
    outer loop
      vertex 7.7000 8.5500 2.8000
      vertex 7.7000 9.4500 2.8000
      vertex 6.8000 9.4500 2.8000
    endloop
  endfacet
  facet normal 0.000000 0.000000 -1.000000
    outer loop
      vertex 6.8000 9.4500 2.0000
      vertex 7.7000 9.4500 2.0000
      vertex 7.7000 8.5500 2.0000
    endloop
  endfacet
  facet normal 0.000000 -1.000000 0.000000
    outer loop
      vertex 6.8000 8.5500 2.0000
      vertex 7.7000 8.5500 2.0000
      vertex 7.7000 8.5500 2.8000
    endloop
  endfacet
  facet normal 0.000000 -1.000000 0.000000
    outer loop
      vertex 6.8000 8.5500 2.0000
      vertex 7.7000 8.5500 2.8000
      vertex 6.8000 8.5500 2.8000
    endloop
  endfacet
  facet normal 1.000000 0.000000 0.000000
    outer loop
      vertex 7.7000 8.5500 2.0000
      vertex 7.7000 9.4500 2.0000
      vertex 7.7000 9.4500 2.8000
    endloop
  endfacet
  facet normal 1.000000 0.000000 0.000000
    outer loop
      vertex 7.7000 8.5500 2.0000
      vertex 7.7000 9.4500 2.8000
      vertex 7.7000 8.5500 2.8000
    endloop
  endfacet
  facet normal 0.000000 1.000000 0.000000
    outer loop
      vertex 7.7000 9.4500 2.0000
      vertex 6.8000 9.4500 2.0000
      vertex 6.8000 9.4500 2.8000
    endloop
  endfacet
  facet normal 0.000000 1.000000 -0.000000
    outer loop
      vertex 7.7000 9.4500 2.0000
      vertex 6.8000 9.4500 2.8000
      vertex 7.7000 9.4500 2.8000
    endloop
  endfacet
  facet normal -1.000000 0.000000 0.000000
    outer loop
      vertex 6.8000 9.4500 2.0000
      vertex 6.8000 8.5500 2.0000
      vertex 6.8000 8.5500 2.8000
    endloop
  endfacet
  facet normal -1.000000 0.000000 0.000000
    outer loop
      vertex 6.8000 9.4500 2.0000
      vertex 6.8000 8.5500 2.8000
      vertex 6.8000 9.4500 2.8000
    endloop
  endfacet
  facet normal 0.000000 0.000000 1.000000
    outer loop
      vertex 8.6000 9.4500 2.8000
      vertex 8.6000 8.5500 2.8000
      vertex 9.5000 8.5500 2.8000
    endloop
  endfacet
  facet normal 0.000000 0.000000 -1.000000
    outer loop
      vertex 9.5000 8.5500 2.0000
      vertex 8.6000 8.5500 2.0000
      vertex 8.6000 9.4500 2.0000
    endloop
  endfacet
  facet normal 0.000000 -0.000000 1.000000
    outer loop
      vertex 9.5000 8.5500 2.8000
      vertex 9.5000 9.4500 2.8000
      vertex 8.6000 9.4500 2.8000
    endloop
  endfacet
  facet normal 0.000000 0.000000 -1.000000
    outer loop
      vertex 8.6000 9.4500 2.0000
      vertex 9.5000 9.4500 2.0000
      vertex 9.5000 8.5500 2.0000
    endloop
  endfacet
  facet normal 0.000000 -1.000000 0.000000
    outer loop
      vertex 8.6000 8.5500 2.0000
      vertex 9.5000 8.5500 2.0000
      vertex 9.5000 8.5500 2.8000
    endloop
  endfacet
  facet normal 0.000000 -1.000000 0.000000
    outer loop
      vertex 8.6000 8.5500 2.0000
      vertex 9.5000 8.5500 2.8000
      vertex 8.6000 8.5500 2.8000
    endloop
  endfacet
  facet normal 1.000000 0.000000 0.000000
    outer loop
      vertex 9.5000 8.5500 2.0000
      vertex 9.5000 9.4500 2.0000
      vertex 9.5000 9.4500 2.8000
    endloop
  endfacet
  facet normal 1.000000 0.000000 0.000000
    outer loop
      vertex 9.5000 8.5500 2.0000
      vertex 9.5000 9.4500 2.8000
      vertex 9.5000 8.5500 2.8000
    endloop
  endfacet
  facet normal 0.000000 1.000000 0.000000
    outer loop
      vertex 9.5000 9.4500 2.0000
      vertex 8.6000 9.4500 2.0000
      vertex 8.6000 9.4500 2.8000
    endloop
  endfacet
  facet normal 0.000000 1.000000 -0.000000
    outer loop
      vertex 9.5000 9.4500 2.0000
      vertex 8.6000 9.4500 2.8000
      vertex 9.5000 9.4500 2.8000
    endloop
  endfacet
  facet normal -1.000000 0.000000 0.000000
    outer loop
      vertex 8.6000 9.4500 2.0000
      vertex 8.6000 8.5500 2.0000
      vertex 8.6000 8.5500 2.8000
    endloop
  endfacet
  facet normal -1.000000 0.000000 0.000000
    outer loop
      vertex 8.6000 9.4500 2.0000
      vertex 8.6000 8.5500 2.8000
      vertex 8.6000 9.4500 2.8000
    endloop
  endfacet
  facet normal 0.000000 0.000000 1.000000
    outer loop
      vertex 12.2000 9.4500 2.8000
      vertex 12.2000 8.5500 2.8000
      vertex 13.1000 8.5500 2.8000
    endloop
  endfacet
  facet normal 0.000000 0.000000 -1.000000
    outer loop
      vertex 13.1000 8.5500 2.0000
      vertex 12.2000 8.5500 2.0000
      vertex 12.2000 9.4500 2.0000
    endloop
  endfacet
  facet normal 0.000000 -0.000000 1.000000
    outer loop
      vertex 13.1000 8.5500 2.8000
      vertex 13.1000 9.4500 2.8000
      vertex 12.2000 9.4500 2.8000
    endloop
  endfacet
  facet normal 0.000000 0.000000 -1.000000
    outer loop
      vertex 12.2000 9.4500 2.0000
      vertex 13.1000 9.4500 2.0000
      vertex 13.1000 8.5500 2.0000
    endloop
  endfacet
  facet normal 0.000000 -1.000000 0.000000
    outer loop
      vertex 12.2000 8.5500 2.0000
      vertex 13.1000 8.5500 2.0000
      vertex 13.1000 8.5500 2.8000
    endloop
  endfacet
  facet normal 0.000000 -1.000000 0.000000
    outer loop
      vertex 12.2000 8.5500 2.0000
      vertex 13.1000 8.5500 2.8000
      vertex 12.2000 8.5500 2.8000
    endloop
  endfacet
  facet normal 1.000000 0.000000 0.000000
    outer loop
      vertex 13.1000 8.5500 2.0000
      vertex 13.1000 9.4500 2.0000
      vertex 13.1000 9.4500 2.8000
    endloop
  endfacet
  facet normal 1.000000 0.000000 0.000000
    outer loop
      vertex 13.1000 8.5500 2.0000
      vertex 13.1000 9.4500 2.8000
      vertex 13.1000 8.5500 2.8000
    endloop
  endfacet
  facet normal 0.000000 1.000000 0.000000
    outer loop
      vertex 13.1000 9.4500 2.0000
      vertex 12.2000 9.4500 2.0000
      vertex 12.2000 9.4500 2.8000
    endloop
  endfacet
  facet normal 0.000000 1.000000 -0.000000
    outer loop
      vertex 13.1000 9.4500 2.0000
      vertex 12.2000 9.4500 2.8000
      vertex 13.1000 9.4500 2.8000
    endloop
  endfacet
  facet normal -1.000000 0.000000 0.000000
    outer loop
      vertex 12.2000 9.4500 2.0000
      vertex 12.2000 8.5500 2.0000
      vertex 12.2000 8.5500 2.8000
    endloop
  endfacet
  facet normal -1.000000 0.000000 0.000000
    outer loop
      vertex 12.2000 9.4500 2.0000
      vertex 12.2000 8.5500 2.8000
      vertex 12.2000 9.4500 2.8000
    endloop
  endfacet
  facet normal 0.000000 0.000000 1.000000
    outer loop
      vertex 14.0000 9.4500 2.8000
      vertex 14.0000 8.5500 2.8000
      vertex 16.7000 8.5500 2.8000
    endloop
  endfacet
  facet normal 0.000000 0.000000 -1.000000
    outer loop
      vertex 16.7000 8.5500 2.0000
      vertex 14.0000 8.5500 2.0000
      vertex 14.0000 9.4500 2.0000
    endloop
  endfacet
  facet normal 0.000000 -0.000000 1.000000
    outer loop
      vertex 16.7000 8.5500 2.8000
      vertex 16.7000 9.4500 2.8000
      vertex 14.0000 9.4500 2.8000
    endloop
  endfacet
  facet normal 0.000000 0.000000 -1.000000
    outer loop
      vertex 14.0000 9.4500 2.0000
      vertex 16.7000 9.4500 2.0000
      vertex 16.7000 8.5500 2.0000
    endloop
  endfacet
  facet normal 0.000000 -1.000000 0.000000
    outer loop
      vertex 14.0000 8.5500 2.0000
      vertex 16.7000 8.5500 2.0000
      vertex 16.7000 8.5500 2.8000
    endloop
  endfacet
  facet normal 0.000000 -1.000000 0.000000
    outer loop
      vertex 14.0000 8.5500 2.0000
      vertex 16.7000 8.5500 2.8000
      vertex 14.0000 8.5500 2.8000
    endloop
  endfacet
  facet normal 1.000000 0.000000 0.000000
    outer loop
      vertex 16.7000 8.5500 2.0000
      vertex 16.7000 9.4500 2.0000
      vertex 16.7000 9.4500 2.8000
    endloop
  endfacet
  facet normal 1.000000 0.000000 0.000000
    outer loop
      vertex 16.7000 8.5500 2.0000
      vertex 16.7000 9.4500 2.8000
      vertex 16.7000 8.5500 2.8000
    endloop
  endfacet
  facet normal 0.000000 1.000000 0.000000
    outer loop
      vertex 16.7000 9.4500 2.0000
      vertex 14.0000 9.4500 2.0000
      vertex 14.0000 9.4500 2.8000
    endloop
  endfacet
  facet normal 0.000000 1.000000 -0.000000
    outer loop
      vertex 16.7000 9.4500 2.0000
      vertex 14.0000 9.4500 2.8000
      vertex 16.7000 9.4500 2.8000
    endloop
  endfacet
  facet normal -1.000000 0.000000 0.000000
    outer loop
      vertex 14.0000 9.4500 2.0000
      vertex 14.0000 8.5500 2.0000
      vertex 14.0000 8.5500 2.8000
    endloop
  endfacet
  facet normal -1.000000 0.000000 0.000000
    outer loop
      vertex 14.0000 9.4500 2.0000
      vertex 14.0000 8.5500 2.8000
      vertex 14.0000 9.4500 2.8000
    endloop
  endfacet
  facet normal 0.000000 0.000000 1.000000
    outer loop
      vertex 17.6000 9.4500 2.8000
      vertex 17.6000 8.5500 2.8000
      vertex 20.3000 8.5500 2.8000
    endloop
  endfacet
  facet normal 0.000000 0.000000 -1.000000
    outer loop
      vertex 20.3000 8.5500 2.0000
      vertex 17.6000 8.5500 2.0000
      vertex 17.6000 9.4500 2.0000
    endloop
  endfacet
  facet normal 0.000000 -0.000000 1.000000
    outer loop
      vertex 20.3000 8.5500 2.8000
      vertex 20.3000 9.4500 2.8000
      vertex 17.6000 9.4500 2.8000
    endloop
  endfacet
  facet normal 0.000000 0.000000 -1.000000
    outer loop
      vertex 17.6000 9.4500 2.0000
      vertex 20.3000 9.4500 2.0000
      vertex 20.3000 8.5500 2.0000
    endloop
  endfacet
  facet normal 0.000000 -1.000000 0.000000
    outer loop
      vertex 17.6000 8.5500 2.0000
      vertex 20.3000 8.5500 2.0000
      vertex 20.3000 8.5500 2.8000
    endloop
  endfacet
  facet normal 0.000000 -1.000000 0.000000
    outer loop
      vertex 17.6000 8.5500 2.0000
      vertex 20.3000 8.5500 2.8000
      vertex 17.6000 8.5500 2.8000
    endloop
  endfacet
  facet normal 1.000000 0.000000 0.000000
    outer loop
      vertex 20.3000 8.5500 2.0000
      vertex 20.3000 9.4500 2.0000
      vertex 20.3000 9.4500 2.8000
    endloop
  endfacet
  facet normal 1.000000 0.000000 0.000000
    outer loop
      vertex 20.3000 8.5500 2.0000
      vertex 20.3000 9.4500 2.8000
      vertex 20.3000 8.5500 2.8000
    endloop
  endfacet
  facet normal 0.000000 1.000000 0.000000
    outer loop
      vertex 20.3000 9.4500 2.0000
      vertex 17.6000 9.4500 2.0000
      vertex 17.6000 9.4500 2.8000
    endloop
  endfacet
  facet normal 0.000000 1.000000 -0.000000
    outer loop
      vertex 20.3000 9.4500 2.0000
      vertex 17.6000 9.4500 2.8000
      vertex 20.3000 9.4500 2.8000
    endloop
  endfacet
  facet normal -1.000000 0.000000 0.000000
    outer loop
      vertex 17.6000 9.4500 2.0000
      vertex 17.6000 8.5500 2.0000
      vertex 17.6000 8.5500 2.8000
    endloop
  endfacet
  facet normal -1.000000 0.000000 0.000000
    outer loop
      vertex 17.6000 9.4500 2.0000
      vertex 17.6000 8.5500 2.8000
      vertex 17.6000 9.4500 2.8000
    endloop
  endfacet
  facet normal 0.000000 0.000000 1.000000
    outer loop
      vertex 23.0000 9.4500 2.8000
      vertex 23.0000 8.5500 2.8000
      vertex 23.9000 8.5500 2.8000
    endloop
  endfacet
  facet normal 0.000000 0.000000 -1.000000
    outer loop
      vertex 23.9000 8.5500 2.0000
      vertex 23.0000 8.5500 2.0000
      vertex 23.0000 9.4500 2.0000
    endloop
  endfacet
  facet normal 0.000000 -0.000000 1.000000
    outer loop
      vertex 23.9000 8.5500 2.8000
      vertex 23.9000 9.4500 2.8000
      vertex 23.0000 9.4500 2.8000
    endloop
  endfacet
  facet normal 0.000000 0.000000 -1.000000
    outer loop
      vertex 23.0000 9.4500 2.0000
      vertex 23.9000 9.4500 2.0000
      vertex 23.9000 8.5500 2.0000
    endloop
  endfacet
  facet normal 0.000000 -1.000000 0.000000
    outer loop
      vertex 23.0000 8.5500 2.0000
      vertex 23.9000 8.5500 2.0000
      vertex 23.9000 8.5500 2.8000
    endloop
  endfacet
  facet normal 0.000000 -1.000000 0.000000
    outer loop
      vertex 23.0000 8.5500 2.0000
      vertex 23.9000 8.5500 2.8000
      vertex 23.0000 8.5500 2.8000
    endloop
  endfacet
  facet normal 1.000000 0.000000 0.000000
    outer loop
      vertex 23.9000 8.5500 2.0000
      vertex 23.9000 9.4500 2.0000
      vertex 23.9000 9.4500 2.8000
    endloop
  endfacet
  facet normal 1.000000 0.000000 0.000000
    outer loop
      vertex 23.9000 8.5500 2.0000
      vertex 23.9000 9.4500 2.8000
      vertex 23.9000 8.5500 2.8000
    endloop
  endfacet
  facet normal 0.000000 1.000000 0.000000
    outer loop
      vertex 23.9000 9.4500 2.0000
      vertex 23.0000 9.4500 2.0000
      vertex 23.0000 9.4500 2.8000
    endloop
  endfacet
  facet normal 0.000000 1.000000 -0.000000
    outer loop
      vertex 23.9000 9.4500 2.0000
      vertex 23.0000 9.4500 2.8000
      vertex 23.9000 9.4500 2.8000
    endloop
  endfacet
  facet normal -1.000000 0.000000 0.000000
    outer loop
      vertex 23.0000 9.4500 2.0000
      vertex 23.0000 8.5500 2.0000
      vertex 23.0000 8.5500 2.8000
    endloop
  endfacet
  facet normal -1.000000 0.000000 0.000000
    outer loop
      vertex 23.0000 9.4500 2.0000
      vertex 23.0000 8.5500 2.8000
      vertex 23.0000 9.4500 2.8000
    endloop
  endfacet
  facet normal 0.000000 0.000000 1.000000
    outer loop
      vertex 24.8000 9.4500 2.8000
      vertex 24.8000 8.5500 2.8000
      vertex 25.7000 8.5500 2.8000
    endloop
  endfacet
  facet normal 0.000000 0.000000 -1.000000
    outer loop
      vertex 25.7000 8.5500 2.0000
      vertex 24.8000 8.5500 2.0000
      vertex 24.8000 9.4500 2.0000
    endloop
  endfacet
  facet normal 0.000000 -0.000000 1.000000
    outer loop
      vertex 25.7000 8.5500 2.8000
      vertex 25.7000 9.4500 2.8000
      vertex 24.8000 9.4500 2.8000
    endloop
  endfacet
  facet normal 0.000000 0.000000 -1.000000
    outer loop
      vertex 24.8000 9.4500 2.0000
      vertex 25.7000 9.4500 2.0000
      vertex 25.7000 8.5500 2.0000
    endloop
  endfacet
  facet normal 0.000000 -1.000000 0.000000
    outer loop
      vertex 24.8000 8.5500 2.0000
      vertex 25.7000 8.5500 2.0000
      vertex 25.7000 8.5500 2.8000
    endloop
  endfacet
  facet normal 0.000000 -1.000000 0.000000
    outer loop
      vertex 24.8000 8.5500 2.0000
      vertex 25.7000 8.5500 2.8000
      vertex 24.8000 8.5500 2.8000
    endloop
  endfacet
  facet normal 1.000000 0.000000 0.000000
    outer loop
      vertex 25.7000 8.5500 2.0000
      vertex 25.7000 9.4500 2.0000
      vertex 25.7000 9.4500 2.8000
    endloop
  endfacet
  facet normal 1.000000 0.000000 0.000000
    outer loop
      vertex 25.7000 8.5500 2.0000
      vertex 25.7000 9.4500 2.8000
      vertex 25.7000 8.5500 2.8000
    endloop
  endfacet
  facet normal 0.000000 1.000000 0.000000
    outer loop
      vertex 25.7000 9.4500 2.0000
      vertex 24.8000 9.4500 2.0000
      vertex 24.8000 9.4500 2.8000
    endloop
  endfacet
  facet normal 0.000000 1.000000 -0.000000
    outer loop
      vertex 25.7000 9.4500 2.0000
      vertex 24.8000 9.4500 2.8000
      vertex 25.7000 9.4500 2.8000
    endloop
  endfacet
  facet normal -1.000000 0.000000 0.000000
    outer loop
      vertex 24.8000 9.4500 2.0000
      vertex 24.8000 8.5500 2.0000
      vertex 24.8000 8.5500 2.8000
    endloop
  endfacet
  facet normal -1.000000 0.000000 0.000000
    outer loop
      vertex 24.8000 9.4500 2.0000
      vertex 24.8000 8.5500 2.8000
      vertex 24.8000 9.4500 2.8000
    endloop
  endfacet
  facet normal 0.000000 0.000000 1.000000
    outer loop
      vertex 28.4000 9.4500 2.8000
      vertex 28.4000 8.5500 2.8000
      vertex 31.1000 8.5500 2.8000
    endloop
  endfacet
  facet normal 0.000000 0.000000 -1.000000
    outer loop
      vertex 31.1000 8.5500 2.0000
      vertex 28.4000 8.5500 2.0000
      vertex 28.4000 9.4500 2.0000
    endloop
  endfacet
  facet normal 0.000000 -0.000000 1.000000
    outer loop
      vertex 31.1000 8.5500 2.8000
      vertex 31.1000 9.4500 2.8000
      vertex 28.4000 9.4500 2.8000
    endloop
  endfacet
  facet normal 0.000000 0.000000 -1.000000
    outer loop
      vertex 28.4000 9.4500 2.0000
      vertex 31.1000 9.4500 2.0000
      vertex 31.1000 8.5500 2.0000
    endloop
  endfacet
  facet normal 0.000000 -1.000000 0.000000
    outer loop
      vertex 28.4000 8.5500 2.0000
      vertex 31.1000 8.5500 2.0000
      vertex 31.1000 8.5500 2.8000
    endloop
  endfacet
  facet normal 0.000000 -1.000000 0.000000
    outer loop
      vertex 28.4000 8.5500 2.0000
      vertex 31.1000 8.5500 2.8000
      vertex 28.4000 8.5500 2.8000
    endloop
  endfacet
  facet normal 1.000000 0.000000 0.000000
    outer loop
      vertex 31.1000 8.5500 2.0000
      vertex 31.1000 9.4500 2.0000
      vertex 31.1000 9.4500 2.8000
    endloop
  endfacet
  facet normal 1.000000 0.000000 0.000000
    outer loop
      vertex 31.1000 8.5500 2.0000
      vertex 31.1000 9.4500 2.8000
      vertex 31.1000 8.5500 2.8000
    endloop
  endfacet
  facet normal 0.000000 1.000000 0.000000
    outer loop
      vertex 31.1000 9.4500 2.0000
      vertex 28.4000 9.4500 2.0000
      vertex 28.4000 9.4500 2.8000
    endloop
  endfacet
  facet normal 0.000000 1.000000 -0.000000
    outer loop
      vertex 31.1000 9.4500 2.0000
      vertex 28.4000 9.4500 2.8000
      vertex 31.1000 9.4500 2.8000
    endloop
  endfacet
  facet normal -1.000000 0.000000 0.000000
    outer loop
      vertex 28.4000 9.4500 2.0000
      vertex 28.4000 8.5500 2.0000
      vertex 28.4000 8.5500 2.8000
    endloop
  endfacet
  facet normal -1.000000 0.000000 0.000000
    outer loop
      vertex 28.4000 9.4500 2.0000
      vertex 28.4000 8.5500 2.8000
      vertex 28.4000 9.4500 2.8000
    endloop
  endfacet
  facet normal 0.000000 0.000000 1.000000
    outer loop
      vertex 33.8000 9.4500 2.8000
      vertex 33.8000 8.5500 2.8000
      vertex 36.5000 8.5500 2.8000
    endloop
  endfacet
  facet normal 0.000000 0.000000 -1.000000
    outer loop
      vertex 36.5000 8.5500 2.0000
      vertex 33.8000 8.5500 2.0000
      vertex 33.8000 9.4500 2.0000
    endloop
  endfacet
  facet normal 0.000000 -0.000000 1.000000
    outer loop
      vertex 36.5000 8.5500 2.8000
      vertex 36.5000 9.4500 2.8000
      vertex 33.8000 9.4500 2.8000
    endloop
  endfacet
  facet normal 0.000000 0.000000 -1.000000
    outer loop
      vertex 33.8000 9.4500 2.0000
      vertex 36.5000 9.4500 2.0000
      vertex 36.5000 8.5500 2.0000
    endloop
  endfacet
  facet normal 0.000000 -1.000000 0.000000
    outer loop
      vertex 33.8000 8.5500 2.0000
      vertex 36.5000 8.5500 2.0000
      vertex 36.5000 8.5500 2.8000
    endloop
  endfacet
  facet normal 0.000000 -1.000000 0.000000
    outer loop
      vertex 33.8000 8.5500 2.0000
      vertex 36.5000 8.5500 2.8000
      vertex 33.8000 8.5500 2.8000
    endloop
  endfacet
  facet normal 1.000000 0.000000 0.000000
    outer loop
      vertex 36.5000 8.5500 2.0000
      vertex 36.5000 9.4500 2.0000
      vertex 36.5000 9.4500 2.8000
    endloop
  endfacet
  facet normal 1.000000 0.000000 0.000000
    outer loop
      vertex 36.5000 8.5500 2.0000
      vertex 36.5000 9.4500 2.8000
      vertex 36.5000 8.5500 2.8000
    endloop
  endfacet
  facet normal 0.000000 1.000000 0.000000
    outer loop
      vertex 36.5000 9.4500 2.0000
      vertex 33.8000 9.4500 2.0000
      vertex 33.8000 9.4500 2.8000
    endloop
  endfacet
  facet normal 0.000000 1.000000 -0.000000
    outer loop
      vertex 36.5000 9.4500 2.0000
      vertex 33.8000 9.4500 2.8000
      vertex 36.5000 9.4500 2.8000
    endloop
  endfacet
  facet normal -1.000000 0.000000 0.000000
    outer loop
      vertex 33.8000 9.4500 2.0000
      vertex 33.8000 8.5500 2.0000
      vertex 33.8000 8.5500 2.8000
    endloop
  endfacet
  facet normal -1.000000 0.000000 0.000000
    outer loop
      vertex 33.8000 9.4500 2.0000
      vertex 33.8000 8.5500 2.8000
      vertex 33.8000 9.4500 2.8000
    endloop
  endfacet
  facet normal 0.000000 0.000000 1.000000
    outer loop
      vertex 37.4000 9.4500 2.8000
      vertex 37.4000 8.5500 2.8000
      vertex 38.3000 8.5500 2.8000
    endloop
  endfacet
  facet normal 0.000000 0.000000 -1.000000
    outer loop
      vertex 38.3000 8.5500 2.0000
      vertex 37.4000 8.5500 2.0000
      vertex 37.4000 9.4500 2.0000
    endloop
  endfacet
  facet normal 0.000000 -0.000000 1.000000
    outer loop
      vertex 38.3000 8.5500 2.8000
      vertex 38.3000 9.4500 2.8000
      vertex 37.4000 9.4500 2.8000
    endloop
  endfacet
  facet normal 0.000000 0.000000 -1.000000
    outer loop
      vertex 37.4000 9.4500 2.0000
      vertex 38.3000 9.4500 2.0000
      vertex 38.3000 8.5500 2.0000
    endloop
  endfacet
  facet normal 0.000000 -1.000000 0.000000
    outer loop
      vertex 37.4000 8.5500 2.0000
      vertex 38.3000 8.5500 2.0000
      vertex 38.3000 8.5500 2.8000
    endloop
  endfacet
  facet normal 0.000000 -1.000000 0.000000
    outer loop
      vertex 37.4000 8.5500 2.0000
      vertex 38.3000 8.5500 2.8000
      vertex 37.4000 8.5500 2.8000
    endloop
  endfacet
  facet normal 1.000000 0.000000 0.000000
    outer loop
      vertex 38.3000 8.5500 2.0000
      vertex 38.3000 9.4500 2.0000
      vertex 38.3000 9.4500 2.8000
    endloop
  endfacet
  facet normal 1.000000 0.000000 0.000000
    outer loop
      vertex 38.3000 8.5500 2.0000
      vertex 38.3000 9.4500 2.8000
      vertex 38.3000 8.5500 2.8000
    endloop
  endfacet
  facet normal 0.000000 1.000000 0.000000
    outer loop
      vertex 38.3000 9.4500 2.0000
      vertex 37.4000 9.4500 2.0000
      vertex 37.4000 9.4500 2.8000
    endloop
  endfacet
  facet normal 0.000000 1.000000 -0.000000
    outer loop
      vertex 38.3000 9.4500 2.0000
      vertex 37.4000 9.4500 2.8000
      vertex 38.3000 9.4500 2.8000
    endloop
  endfacet
  facet normal -1.000000 0.000000 0.000000
    outer loop
      vertex 37.4000 9.4500 2.0000
      vertex 37.4000 8.5500 2.0000
      vertex 37.4000 8.5500 2.8000
    endloop
  endfacet
  facet normal -1.000000 0.000000 0.000000
    outer loop
      vertex 37.4000 9.4500 2.0000
      vertex 37.4000 8.5500 2.8000
      vertex 37.4000 9.4500 2.8000
    endloop
  endfacet
  facet normal 0.000000 0.000000 1.000000
    outer loop
      vertex 39.2000 9.4500 2.8000
      vertex 39.2000 8.5500 2.8000
      vertex 41.9000 8.5500 2.8000
    endloop
  endfacet
  facet normal 0.000000 0.000000 -1.000000
    outer loop
      vertex 41.9000 8.5500 2.0000
      vertex 39.2000 8.5500 2.0000
      vertex 39.2000 9.4500 2.0000
    endloop
  endfacet
  facet normal 0.000000 -0.000000 1.000000
    outer loop
      vertex 41.9000 8.5500 2.8000
      vertex 41.9000 9.4500 2.8000
      vertex 39.2000 9.4500 2.8000
    endloop
  endfacet
  facet normal 0.000000 0.000000 -1.000000
    outer loop
      vertex 39.2000 9.4500 2.0000
      vertex 41.9000 9.4500 2.0000
      vertex 41.9000 8.5500 2.0000
    endloop
  endfacet
  facet normal 0.000000 -1.000000 0.000000
    outer loop
      vertex 39.2000 8.5500 2.0000
      vertex 41.9000 8.5500 2.0000
      vertex 41.9000 8.5500 2.8000
    endloop
  endfacet
  facet normal 0.000000 -1.000000 0.000000
    outer loop
      vertex 39.2000 8.5500 2.0000
      vertex 41.9000 8.5500 2.8000
      vertex 39.2000 8.5500 2.8000
    endloop
  endfacet
  facet normal 1.000000 0.000000 0.000000
    outer loop
      vertex 41.9000 8.5500 2.0000
      vertex 41.9000 9.4500 2.0000
      vertex 41.9000 9.4500 2.8000
    endloop
  endfacet
  facet normal 1.000000 0.000000 0.000000
    outer loop
      vertex 41.9000 8.5500 2.0000
      vertex 41.9000 9.4500 2.8000
      vertex 41.9000 8.5500 2.8000
    endloop
  endfacet
  facet normal 0.000000 1.000000 0.000000
    outer loop
      vertex 41.9000 9.4500 2.0000
      vertex 39.2000 9.4500 2.0000
      vertex 39.2000 9.4500 2.8000
    endloop
  endfacet
  facet normal 0.000000 1.000000 -0.000000
    outer loop
      vertex 41.9000 9.4500 2.0000
      vertex 39.2000 9.4500 2.8000
      vertex 41.9000 9.4500 2.8000
    endloop
  endfacet
  facet normal -1.000000 0.000000 0.000000
    outer loop
      vertex 39.2000 9.4500 2.0000
      vertex 39.2000 8.5500 2.0000
      vertex 39.2000 8.5500 2.8000
    endloop
  endfacet
  facet normal -1.000000 0.000000 0.000000
    outer loop
      vertex 39.2000 9.4500 2.0000
      vertex 39.2000 8.5500 2.8000
      vertex 39.2000 9.4500 2.8000
    endloop
  endfacet
  facet normal 0.000000 0.000000 1.000000
    outer loop
      vertex 42.8000 9.4500 2.8000
      vertex 42.8000 8.5500 2.8000
      vertex 43.7000 8.5500 2.8000
    endloop
  endfacet
  facet normal 0.000000 0.000000 -1.000000
    outer loop
      vertex 43.7000 8.5500 2.0000
      vertex 42.8000 8.5500 2.0000
      vertex 42.8000 9.4500 2.0000
    endloop
  endfacet
  facet normal 0.000000 -0.000000 1.000000
    outer loop
      vertex 43.7000 8.5500 2.8000
      vertex 43.7000 9.4500 2.8000
      vertex 42.8000 9.4500 2.8000
    endloop
  endfacet
  facet normal 0.000000 0.000000 -1.000000
    outer loop
      vertex 42.8000 9.4500 2.0000
      vertex 43.7000 9.4500 2.0000
      vertex 43.7000 8.5500 2.0000
    endloop
  endfacet
  facet normal 0.000000 -1.000000 0.000000
    outer loop
      vertex 42.8000 8.5500 2.0000
      vertex 43.7000 8.5500 2.0000
      vertex 43.7000 8.5500 2.8000
    endloop
  endfacet
  facet normal 0.000000 -1.000000 0.000000
    outer loop
      vertex 42.8000 8.5500 2.0000
      vertex 43.7000 8.5500 2.8000
      vertex 42.8000 8.5500 2.8000
    endloop
  endfacet
  facet normal 1.000000 0.000000 0.000000
    outer loop
      vertex 43.7000 8.5500 2.0000
      vertex 43.7000 9.4500 2.0000
      vertex 43.7000 9.4500 2.8000
    endloop
  endfacet
  facet normal 1.000000 0.000000 0.000000
    outer loop
      vertex 43.7000 8.5500 2.0000
      vertex 43.7000 9.4500 2.8000
      vertex 43.7000 8.5500 2.8000
    endloop
  endfacet
  facet normal 0.000000 1.000000 0.000000
    outer loop
      vertex 43.7000 9.4500 2.0000
      vertex 42.8000 9.4500 2.0000
      vertex 42.8000 9.4500 2.8000
    endloop
  endfacet
  facet normal 0.000000 1.000000 -0.000000
    outer loop
      vertex 43.7000 9.4500 2.0000
      vertex 42.8000 9.4500 2.8000
      vertex 43.7000 9.4500 2.8000
    endloop
  endfacet
  facet normal -1.000000 0.000000 0.000000
    outer loop
      vertex 42.8000 9.4500 2.0000
      vertex 42.8000 8.5500 2.0000
      vertex 42.8000 8.5500 2.8000
    endloop
  endfacet
  facet normal -1.000000 0.000000 0.000000
    outer loop
      vertex 42.8000 9.4500 2.0000
      vertex 42.8000 8.5500 2.8000
      vertex 42.8000 9.4500 2.8000
    endloop
  endfacet
  facet normal 0.000000 0.000000 1.000000
    outer loop
      vertex 46.4000 9.4500 2.8000
      vertex 46.4000 8.5500 2.8000
      vertex 47.3000 8.5500 2.8000
    endloop
  endfacet
  facet normal 0.000000 0.000000 -1.000000
    outer loop
      vertex 47.3000 8.5500 2.0000
      vertex 46.4000 8.5500 2.0000
      vertex 46.4000 9.4500 2.0000
    endloop
  endfacet
  facet normal 0.000000 -0.000000 1.000000
    outer loop
      vertex 47.3000 8.5500 2.8000
      vertex 47.3000 9.4500 2.8000
      vertex 46.4000 9.4500 2.8000
    endloop
  endfacet
  facet normal 0.000000 0.000000 -1.000000
    outer loop
      vertex 46.4000 9.4500 2.0000
      vertex 47.3000 9.4500 2.0000
      vertex 47.3000 8.5500 2.0000
    endloop
  endfacet
  facet normal 0.000000 -1.000000 0.000000
    outer loop
      vertex 46.4000 8.5500 2.0000
      vertex 47.3000 8.5500 2.0000
      vertex 47.3000 8.5500 2.8000
    endloop
  endfacet
  facet normal 0.000000 -1.000000 0.000000
    outer loop
      vertex 46.4000 8.5500 2.0000
      vertex 47.3000 8.5500 2.8000
      vertex 46.4000 8.5500 2.8000
    endloop
  endfacet
  facet normal 1.000000 0.000000 0.000000
    outer loop
      vertex 47.3000 8.5500 2.0000
      vertex 47.3000 9.4500 2.0000
      vertex 47.3000 9.4500 2.8000
    endloop
  endfacet
  facet normal 1.000000 0.000000 0.000000
    outer loop
      vertex 47.3000 8.5500 2.0000
      vertex 47.3000 9.4500 2.8000
      vertex 47.3000 8.5500 2.8000
    endloop
  endfacet
  facet normal 0.000000 1.000000 0.000000
    outer loop
      vertex 47.3000 9.4500 2.0000
      vertex 46.4000 9.4500 2.0000
      vertex 46.4000 9.4500 2.8000
    endloop
  endfacet
  facet normal 0.000000 1.000000 -0.000000
    outer loop
      vertex 47.3000 9.4500 2.0000
      vertex 46.4000 9.4500 2.8000
      vertex 47.3000 9.4500 2.8000
    endloop
  endfacet
  facet normal -1.000000 0.000000 0.000000
    outer loop
      vertex 46.4000 9.4500 2.0000
      vertex 46.4000 8.5500 2.0000
      vertex 46.4000 8.5500 2.8000
    endloop
  endfacet
  facet normal -1.000000 0.000000 0.000000
    outer loop
      vertex 46.4000 9.4500 2.0000
      vertex 46.4000 8.5500 2.8000
      vertex 46.4000 9.4500 2.8000
    endloop
  endfacet
  facet normal 0.000000 0.000000 1.000000
    outer loop
      vertex 48.2000 9.4500 2.8000
      vertex 48.2000 8.5500 2.8000
      vertex 49.1000 8.5500 2.8000
    endloop
  endfacet
  facet normal 0.000000 0.000000 -1.000000
    outer loop
      vertex 49.1000 8.5500 2.0000
      vertex 48.2000 8.5500 2.0000
      vertex 48.2000 9.4500 2.0000
    endloop
  endfacet
  facet normal 0.000000 -0.000000 1.000000
    outer loop
      vertex 49.1000 8.5500 2.8000
      vertex 49.1000 9.4500 2.8000
      vertex 48.2000 9.4500 2.8000
    endloop
  endfacet
  facet normal 0.000000 0.000000 -1.000000
    outer loop
      vertex 48.2000 9.4500 2.0000
      vertex 49.1000 9.4500 2.0000
      vertex 49.1000 8.5500 2.0000
    endloop
  endfacet
  facet normal 0.000000 -1.000000 0.000000
    outer loop
      vertex 48.2000 8.5500 2.0000
      vertex 49.1000 8.5500 2.0000
      vertex 49.1000 8.5500 2.8000
    endloop
  endfacet
  facet normal 0.000000 -1.000000 0.000000
    outer loop
      vertex 48.2000 8.5500 2.0000
      vertex 49.1000 8.5500 2.8000
      vertex 48.2000 8.5500 2.8000
    endloop
  endfacet
  facet normal 1.000000 0.000000 0.000000
    outer loop
      vertex 49.1000 8.5500 2.0000
      vertex 49.1000 9.4500 2.0000
      vertex 49.1000 9.4500 2.8000
    endloop
  endfacet
  facet normal 1.000000 0.000000 0.000000
    outer loop
      vertex 49.1000 8.5500 2.0000
      vertex 49.1000 9.4500 2.8000
      vertex 49.1000 8.5500 2.8000
    endloop
  endfacet
  facet normal 0.000000 1.000000 0.000000
    outer loop
      vertex 49.1000 9.4500 2.0000
      vertex 48.2000 9.4500 2.0000
      vertex 48.2000 9.4500 2.8000
    endloop
  endfacet
  facet normal 0.000000 1.000000 -0.000000
    outer loop
      vertex 49.1000 9.4500 2.0000
      vertex 48.2000 9.4500 2.8000
      vertex 49.1000 9.4500 2.8000
    endloop
  endfacet
  facet normal -1.000000 0.000000 0.000000
    outer loop
      vertex 48.2000 9.4500 2.0000
      vertex 48.2000 8.5500 2.0000
      vertex 48.2000 8.5500 2.8000
    endloop
  endfacet
  facet normal -1.000000 0.000000 0.000000
    outer loop
      vertex 48.2000 9.4500 2.0000
      vertex 48.2000 8.5500 2.8000
      vertex 48.2000 9.4500 2.8000
    endloop
  endfacet
  facet normal 0.000000 0.000000 1.000000
    outer loop
      vertex 50.0000 9.4500 2.8000
      vertex 50.0000 8.5500 2.8000
      vertex 50.9000 8.5500 2.8000
    endloop
  endfacet
  facet normal 0.000000 0.000000 -1.000000
    outer loop
      vertex 50.9000 8.5500 2.0000
      vertex 50.0000 8.5500 2.0000
      vertex 50.0000 9.4500 2.0000
    endloop
  endfacet
  facet normal 0.000000 -0.000000 1.000000
    outer loop
      vertex 50.9000 8.5500 2.8000
      vertex 50.9000 9.4500 2.8000
      vertex 50.0000 9.4500 2.8000
    endloop
  endfacet
  facet normal 0.000000 0.000000 -1.000000
    outer loop
      vertex 50.0000 9.4500 2.0000
      vertex 50.9000 9.4500 2.0000
      vertex 50.9000 8.5500 2.0000
    endloop
  endfacet
  facet normal 0.000000 -1.000000 0.000000
    outer loop
      vertex 50.0000 8.5500 2.0000
      vertex 50.9000 8.5500 2.0000
      vertex 50.9000 8.5500 2.8000
    endloop
  endfacet
  facet normal 0.000000 -1.000000 0.000000
    outer loop
      vertex 50.0000 8.5500 2.0000
      vertex 50.9000 8.5500 2.8000
      vertex 50.0000 8.5500 2.8000
    endloop
  endfacet
  facet normal 1.000000 0.000000 0.000000
    outer loop
      vertex 50.9000 8.5500 2.0000
      vertex 50.9000 9.4500 2.0000
      vertex 50.9000 9.4500 2.8000
    endloop
  endfacet
  facet normal 1.000000 0.000000 0.000000
    outer loop
      vertex 50.9000 8.5500 2.0000
      vertex 50.9000 9.4500 2.8000
      vertex 50.9000 8.5500 2.8000
    endloop
  endfacet
  facet normal 0.000000 1.000000 0.000000
    outer loop
      vertex 50.9000 9.4500 2.0000
      vertex 50.0000 9.4500 2.0000
      vertex 50.0000 9.4500 2.8000
    endloop
  endfacet
  facet normal 0.000000 1.000000 -0.000000
    outer loop
      vertex 50.9000 9.4500 2.0000
      vertex 50.0000 9.4500 2.8000
      vertex 50.9000 9.4500 2.8000
    endloop
  endfacet
  facet normal -1.000000 0.000000 0.000000
    outer loop
      vertex 50.0000 9.4500 2.0000
      vertex 50.0000 8.5500 2.0000
      vertex 50.0000 8.5500 2.8000
    endloop
  endfacet
  facet normal -1.000000 0.000000 0.000000
    outer loop
      vertex 50.0000 9.4500 2.0000
      vertex 50.0000 8.5500 2.8000
      vertex 50.0000 9.4500 2.8000
    endloop
  endfacet
  facet normal 0.000000 0.000000 1.000000
    outer loop
      vertex 51.8000 9.4500 2.8000
      vertex 51.8000 8.5500 2.8000
      vertex 52.7000 8.5500 2.8000
    endloop
  endfacet
  facet normal 0.000000 0.000000 -1.000000
    outer loop
      vertex 52.7000 8.5500 2.0000
      vertex 51.8000 8.5500 2.0000
      vertex 51.8000 9.4500 2.0000
    endloop
  endfacet
  facet normal 0.000000 -0.000000 1.000000
    outer loop
      vertex 52.7000 8.5500 2.8000
      vertex 52.7000 9.4500 2.8000
      vertex 51.8000 9.4500 2.8000
    endloop
  endfacet
  facet normal 0.000000 0.000000 -1.000000
    outer loop
      vertex 51.8000 9.4500 2.0000
      vertex 52.7000 9.4500 2.0000
      vertex 52.7000 8.5500 2.0000
    endloop
  endfacet
  facet normal 0.000000 -1.000000 0.000000
    outer loop
      vertex 51.8000 8.5500 2.0000
      vertex 52.7000 8.5500 2.0000
      vertex 52.7000 8.5500 2.8000
    endloop
  endfacet
  facet normal 0.000000 -1.000000 0.000000
    outer loop
      vertex 51.8000 8.5500 2.0000
      vertex 52.7000 8.5500 2.8000
      vertex 51.8000 8.5500 2.8000
    endloop
  endfacet
  facet normal 1.000000 0.000000 0.000000
    outer loop
      vertex 52.7000 8.5500 2.0000
      vertex 52.7000 9.4500 2.0000
      vertex 52.7000 9.4500 2.8000
    endloop
  endfacet
  facet normal 1.000000 0.000000 0.000000
    outer loop
      vertex 52.7000 8.5500 2.0000
      vertex 52.7000 9.4500 2.8000
      vertex 52.7000 8.5500 2.8000
    endloop
  endfacet
  facet normal 0.000000 1.000000 0.000000
    outer loop
      vertex 52.7000 9.4500 2.0000
      vertex 51.8000 9.4500 2.0000
      vertex 51.8000 9.4500 2.8000
    endloop
  endfacet
  facet normal 0.000000 1.000000 -0.000000
    outer loop
      vertex 52.7000 9.4500 2.0000
      vertex 51.8000 9.4500 2.8000
      vertex 52.7000 9.4500 2.8000
    endloop
  endfacet
  facet normal -1.000000 0.000000 0.000000
    outer loop
      vertex 51.8000 9.4500 2.0000
      vertex 51.8000 8.5500 2.0000
      vertex 51.8000 8.5500 2.8000
    endloop
  endfacet
  facet normal -1.000000 0.000000 0.000000
    outer loop
      vertex 51.8000 9.4500 2.0000
      vertex 51.8000 8.5500 2.8000
      vertex 51.8000 9.4500 2.8000
    endloop
  endfacet
  facet normal 0.000000 -0.000000 1.000000
    outer loop
      vertex 5.5000 10.0000 2.8000
      vertex 5.5000 14.0000 2.8000
      vertex 4.5000 14.0000 2.8000
    endloop
  endfacet
  facet normal 0.000000 0.000000 -1.000000
    outer loop
      vertex 4.5000 14.0000 2.0000
      vertex 5.5000 14.0000 2.0000
      vertex 5.5000 10.0000 2.0000
    endloop
  endfacet
  facet normal 0.000000 0.000000 1.000000
    outer loop
      vertex 4.5000 14.0000 2.8000
      vertex 4.5000 10.0000 2.8000
      vertex 5.5000 10.0000 2.8000
    endloop
  endfacet
  facet normal 0.000000 0.000000 -1.000000
    outer loop
      vertex 5.5000 10.0000 2.0000
      vertex 4.5000 10.0000 2.0000
      vertex 4.5000 14.0000 2.0000
    endloop
  endfacet
  facet normal 0.000000 1.000000 0.000000
    outer loop
      vertex 5.5000 14.0000 2.0000
      vertex 4.5000 14.0000 2.0000
      vertex 4.5000 14.0000 2.8000
    endloop
  endfacet
  facet normal 0.000000 1.000000 -0.000000
    outer loop
      vertex 5.5000 14.0000 2.0000
      vertex 4.5000 14.0000 2.8000
      vertex 5.5000 14.0000 2.8000
    endloop
  endfacet
  facet normal -1.000000 0.000000 0.000000
    outer loop
      vertex 4.5000 14.0000 2.0000
      vertex 4.5000 10.0000 2.0000
      vertex 4.5000 10.0000 2.8000
    endloop
  endfacet
  facet normal -1.000000 0.000000 0.000000
    outer loop
      vertex 4.5000 14.0000 2.0000
      vertex 4.5000 10.0000 2.8000
      vertex 4.5000 14.0000 2.8000
    endloop
  endfacet
  facet normal 0.000000 -1.000000 0.000000
    outer loop
      vertex 4.5000 10.0000 2.0000
      vertex 5.5000 10.0000 2.0000
      vertex 5.5000 10.0000 2.8000
    endloop
  endfacet
  facet normal 0.000000 -1.000000 0.000000
    outer loop
      vertex 4.5000 10.0000 2.0000
      vertex 5.5000 10.0000 2.8000
      vertex 4.5000 10.0000 2.8000
    endloop
  endfacet
  facet normal 1.000000 0.000000 0.000000
    outer loop
      vertex 5.5000 10.0000 2.0000
      vertex 5.5000 14.0000 2.0000
      vertex 5.5000 14.0000 2.8000
    endloop
  endfacet
  facet normal 1.000000 0.000000 0.000000
    outer loop
      vertex 5.5000 10.0000 2.0000
      vertex 5.5000 14.0000 2.8000
      vertex 5.5000 10.0000 2.8000
    endloop
  endfacet
  facet normal 0.000000 0.000000 1.000000
    outer loop
      vertex 44.0000 28.4200 2.8000
      vertex 55.0200 19.6800 2.8000
      vertex 55.8750 20.4400 2.8000
    endloop
  endfacet
  facet normal -0.000000 0.000000 -1.000000
    outer loop
      vertex 55.8750 20.4400 2.0000
      vertex 55.0200 19.6800 2.0000
      vertex 44.0000 28.4200 2.0000
    endloop
  endfacet
  facet normal 0.000000 0.000000 1.000000
    outer loop
      vertex 55.8750 20.4400 2.8000
      vertex 45.0450 28.0875 2.8000
      vertex 44.0000 28.4200 2.8000
    endloop
  endfacet
  facet normal 0.000000 0.000000 -1.000000
    outer loop
      vertex 44.0000 28.4200 2.0000
      vertex 45.0450 28.0875 2.0000
      vertex 55.8750 20.4400 2.0000
    endloop
  endfacet
  facet normal 0.664364 -0.747409 0.000000
    outer loop
      vertex 55.0200 19.6800 2.0000
      vertex 55.8750 20.4400 2.0000
      vertex 55.8750 20.4400 2.8000
    endloop
  endfacet
  facet normal 0.664364 -0.747409 0.000000
    outer loop
      vertex 55.0200 19.6800 2.0000
      vertex 55.8750 20.4400 2.8000
      vertex 55.0200 19.6800 2.8000
    endloop
  endfacet
  facet normal 0.576824 0.816869 0.000000
    outer loop
      vertex 55.8750 20.4400 2.0000
      vertex 45.0450 28.0875 2.0000
      vertex 45.0450 28.0875 2.8000
    endloop
  endfacet
  facet normal 0.576824 0.816869 -0.000000
    outer loop
      vertex 55.8750 20.4400 2.0000
      vertex 45.0450 28.0875 2.8000
      vertex 55.8750 20.4400 2.8000
    endloop
  endfacet
  facet normal 0.303204 0.952926 0.000000
    outer loop
      vertex 45.0450 28.0875 2.0000
      vertex 44.0000 28.4200 2.0000
      vertex 44.0000 28.4200 2.8000
    endloop
  endfacet
  facet normal 0.303204 0.952926 -0.000000
    outer loop
      vertex 45.0450 28.0875 2.0000
      vertex 44.0000 28.4200 2.8000
      vertex 45.0450 28.0875 2.8000
    endloop
  endfacet
  facet normal -0.621395 -0.783498 0.000000
    outer loop
      vertex 44.0000 28.4200 2.0000
      vertex 55.0200 19.6800 2.0000
      vertex 55.0200 19.6800 2.8000
    endloop
  endfacet
  facet normal -0.621395 -0.783498 0.000000
    outer loop
      vertex 44.0000 28.4200 2.0000
      vertex 55.0200 19.6800 2.8000
      vertex 44.0000 28.4200 2.8000
    endloop
  endfacet
  facet normal 0.000000 0.000000 1.000000
    outer loop
      vertex 46.0900 27.1850 2.8000
      vertex 46.9450 25.7600 2.8000
      vertex 47.7050 26.0450 2.8000
    endloop
  endfacet
  facet normal -0.000000 0.000000 -1.000000
    outer loop
      vertex 47.7050 26.0450 2.0000
      vertex 46.9450 25.7600 2.0000
      vertex 46.0900 27.1850 2.0000
    endloop
  endfacet
  facet normal 0.000000 0.000000 1.000000
    outer loop
      vertex 47.7050 26.0450 2.8000
      vertex 46.8500 26.9475 2.8000
      vertex 46.0900 27.1850 2.8000
    endloop
  endfacet
  facet normal 0.000000 0.000000 -1.000000
    outer loop
      vertex 46.0900 27.1850 2.0000
      vertex 46.8500 26.9475 2.0000
      vertex 47.7050 26.0450 2.0000
    endloop
  endfacet
  facet normal 0.351123 -0.936329 0.000000
    outer loop
      vertex 46.9450 25.7600 2.0000
      vertex 47.7050 26.0450 2.0000
      vertex 47.7050 26.0450 2.8000
    endloop
  endfacet
  facet normal 0.351123 -0.936329 0.000000
    outer loop
      vertex 46.9450 25.7600 2.0000
      vertex 47.7050 26.0450 2.8000
      vertex 46.9450 25.7600 2.8000
    endloop
  endfacet
  facet normal 0.725953 0.687745 0.000000
    outer loop
      vertex 47.7050 26.0450 2.0000
      vertex 46.8500 26.9475 2.0000
      vertex 46.8500 26.9475 2.8000
    endloop
  endfacet
  facet normal 0.725953 0.687745 -0.000000
    outer loop
      vertex 47.7050 26.0450 2.0000
      vertex 46.8500 26.9475 2.8000
      vertex 47.7050 26.0450 2.8000
    endloop
  endfacet
  facet normal 0.298275 0.954480 0.000000
    outer loop
      vertex 46.8500 26.9475 2.0000
      vertex 46.0900 27.1850 2.0000
      vertex 46.0900 27.1850 2.8000
    endloop
  endfacet
  facet normal 0.298275 0.954480 -0.000000
    outer loop
      vertex 46.8500 26.9475 2.0000
      vertex 46.0900 27.1850 2.8000
      vertex 46.8500 26.9475 2.8000
    endloop
  endfacet
  facet normal -0.857493 -0.514496 0.000000
    outer loop
      vertex 46.0900 27.1850 2.0000
      vertex 46.9450 25.7600 2.0000
      vertex 46.9450 25.7600 2.8000
    endloop
  endfacet
  facet normal -0.857493 -0.514496 0.000000
    outer loop
      vertex 46.0900 27.1850 2.0000
      vertex 46.9450 25.7600 2.8000
      vertex 46.0900 27.1850 2.8000
    endloop
  endfacet
  facet normal 0.000000 0.000000 1.000000
    outer loop
      vertex 55.8750 20.4400 2.8000
      vertex 57.2050 16.8300 2.8000
      vertex 58.5350 13.7900 2.8000
    endloop
  endfacet
  facet normal 0.000000 0.000000 -1.000000
    outer loop
      vertex 58.5350 13.7900 2.0000
      vertex 57.2050 16.8300 2.0000
      vertex 55.8750 20.4400 2.0000
    endloop
  endfacet
  facet normal 0.000000 0.000000 1.000000
    outer loop
      vertex 55.8750 20.4400 2.8000
      vertex 58.5350 13.7900 2.8000
      vertex 59.1050 13.9800 2.8000
    endloop
  endfacet
  facet normal -0.000000 0.000000 -1.000000
    outer loop
      vertex 59.1050 13.9800 2.0000
      vertex 58.5350 13.7900 2.0000
      vertex 55.8750 20.4400 2.0000
    endloop
  endfacet
  facet normal 0.000000 0.000000 1.000000
    outer loop
      vertex 55.8750 20.4400 2.8000
      vertex 59.1050 13.9800 2.8000
      vertex 57.8700 17.0200 2.8000
    endloop
  endfacet
  facet normal -0.000000 -0.000000 -1.000000
    outer loop
      vertex 57.8700 17.0200 2.0000
      vertex 59.1050 13.9800 2.0000
      vertex 55.8750 20.4400 2.0000
    endloop
  endfacet
  facet normal 0.000000 0.000000 1.000000
    outer loop
      vertex 57.8700 17.0200 2.8000
      vertex 56.2550 20.6300 2.8000
      vertex 55.8750 20.4400 2.8000
    endloop
  endfacet
  facet normal 0.000000 0.000000 -1.000000
    outer loop
      vertex 55.8750 20.4400 2.0000
      vertex 56.2550 20.6300 2.0000
      vertex 57.8700 17.0200 2.0000
    endloop
  endfacet
  facet normal -0.916157 -0.400819 0.000000
    outer loop
      vertex 57.2050 16.8300 2.0000
      vertex 58.5350 13.7900 2.0000
      vertex 58.5350 13.7900 2.8000
    endloop
  endfacet
  facet normal -0.916157 -0.400819 0.000000
    outer loop
      vertex 57.2050 16.8300 2.0000
      vertex 58.5350 13.7900 2.8000
      vertex 57.2050 16.8300 2.8000
    endloop
  endfacet
  facet normal 0.316228 -0.948683 0.000000
    outer loop
      vertex 58.5350 13.7900 2.0000
      vertex 59.1050 13.9800 2.0000
      vertex 59.1050 13.9800 2.8000
    endloop
  endfacet
  facet normal 0.316228 -0.948683 0.000000
    outer loop
      vertex 58.5350 13.7900 2.0000
      vertex 59.1050 13.9800 2.8000
      vertex 58.5350 13.7900 2.8000
    endloop
  endfacet
  facet normal 0.926467 0.376377 0.000000
    outer loop
      vertex 59.1050 13.9800 2.0000
      vertex 57.8700 17.0200 2.0000
      vertex 57.8700 17.0200 2.8000
    endloop
  endfacet
  facet normal 0.926467 0.376377 -0.000000
    outer loop
      vertex 59.1050 13.9800 2.0000
      vertex 57.8700 17.0200 2.8000
      vertex 59.1050 13.9800 2.8000
    endloop
  endfacet
  facet normal 0.912818 0.408366 0.000000
    outer loop
      vertex 57.8700 17.0200 2.0000
      vertex 56.2550 20.6300 2.0000
      vertex 56.2550 20.6300 2.8000
    endloop
  endfacet
  facet normal 0.912818 0.408366 -0.000000
    outer loop
      vertex 57.8700 17.0200 2.0000
      vertex 56.2550 20.6300 2.8000
      vertex 57.8700 17.0200 2.8000
    endloop
  endfacet
  facet normal -0.447214 0.894427 0.000000
    outer loop
      vertex 56.2550 20.6300 2.0000
      vertex 55.8750 20.4400 2.0000
      vertex 55.8750 20.4400 2.8000
    endloop
  endfacet
  facet normal -0.447214 0.894427 0.000000
    outer loop
      vertex 56.2550 20.6300 2.0000
      vertex 55.8750 20.4400 2.8000
      vertex 56.2550 20.6300 2.8000
    endloop
  endfacet
  facet normal -0.938343 -0.345705 0.000000
    outer loop
      vertex 55.8750 20.4400 2.0000
      vertex 57.2050 16.8300 2.0000
      vertex 57.2050 16.8300 2.8000
    endloop
  endfacet
  facet normal -0.938343 -0.345705 0.000000
    outer loop
      vertex 55.8750 20.4400 2.0000
      vertex 57.2050 16.8300 2.8000
      vertex 55.8750 20.4400 2.8000
    endloop
  endfacet
endsolid 8key_badge_r1
